<svg width="26" height="24" viewBox="0 0 26 24" fill="none" xmlns="http://www.w3.org/2000/svg">
<path d="M13 17C12.7234 16.9987 12.4507 16.9406 12.2014 16.8299C11.9522 16.7192 11.7328 16.5587 11.5592 16.36L6.99835 11.26C6.73184 10.953 6.56413 10.583 6.51433 10.1923C6.46453 9.80153 6.53465 9.40574 6.71668 9.05C6.86432 8.74083 7.10524 8.47741 7.41068 8.29122C7.71613 8.10503 8.07317 8.00393 8.43918 8H17.5608C17.9269 8.00393 18.2839 8.10503 18.5893 8.29122C18.8948 8.47741 19.1357 8.74083 19.2833 9.05C19.4654 9.40574 19.5355 9.80153 19.4857 10.1923C19.4359 10.583 19.2682 10.953 19.0017 11.26L14.4408 16.36C14.2672 16.5587 14.0478 16.7192 13.7986 16.8299C13.5494 16.9406 13.2766 16.9987 13 17Z" fill="black"/>
</svg>
