<svg width="132" height="111" viewBox="0 0 132 111" fill="none" xmlns="http://www.w3.org/2000/svg">
<path d="M130.924 55.0181L130.924 66.6871C130.924 85.4648 115.702 100.687 96.9239 100.687L66.3672 100.687C53.756 100.687 43.5326 90.4638 43.5326 77.8526C43.5326 65.2414 53.756 55.0181 66.3672 55.0181L130.924 55.0181Z" stroke="#F6F8F9"/>
<path d="M0.5 55.0181L0.500001 66.6871C0.500001 85.4648 15.7223 100.687 34.5 100.687L65.0568 100.687C77.6679 100.687 87.8913 90.4638 87.8913 77.8526C87.8913 65.2414 77.6679 55.0181 65.0568 55.0181L0.5 55.0181Z" stroke="#F6F8F9"/>
<path d="M34.3995 13.3527L26.4741 21.5071C13.3866 34.9726 13.3866 56.8045 26.4741 70.27L49.3192 93.7752C58.0515 102.76 72.2093 102.76 80.9416 93.7752C89.6739 84.7906 89.6739 70.2238 80.9416 61.2393L34.3995 13.3527Z" stroke="#F6F8F9"/>
<path d="M87.8914 1.16913L62.5327 1.16913C52.0393 1.16913 43.5327 9.67571 43.5327 20.1691L43.5327 78.5078C43.5327 90.7571 53.4627 100.687 65.712 100.687C77.9613 100.687 87.8913 90.7571 87.8914 78.5078L87.8914 1.16913Z" stroke="#F6F8F9"/>
<path d="M96.7784 13.3527L104.704 21.5071C117.791 34.9726 117.791 56.8045 104.704 70.27L81.8587 93.7752C73.1265 102.76 58.9686 102.76 50.2364 93.7752C41.5041 84.7906 41.5041 70.2238 50.2364 61.2393L96.7784 13.3527Z" stroke="#F6F8F9"/>
<path d="M44.1957 73.0181C44.1957 62.8008 52.4784 54.5181 62.6957 54.5181H68.7283C78.9455 54.5181 87.2283 62.8008 87.2283 73.0181V81.4905C87.2283 91.7078 78.9456 99.9905 68.7283 99.9905H62.6957C52.4784 99.9905 44.1957 91.7077 44.1957 81.4905V73.0181Z" fill="#F6F8F9"/>
<path d="M65.5 44.9114L78.9234 59.5731H52.0766L65.5 44.9114Z" fill="#F6F8F9"/>
</svg>
