<svg width="49" height="48" viewBox="0 0 49 48" fill="none" xmlns="http://www.w3.org/2000/svg">
<g clip-path="url(#clip0_183_2413)">
<path d="M48.5 24C48.5 10.7452 37.7548 0 24.5 0C11.2452 0 0.5 10.7451 0.5 24C0.5 35.979 9.2765 45.9081 20.75 47.7084V30.9375H14.6562V24H20.75V18.7125C20.75 12.6975 24.3331 9.375 29.8151 9.375C32.441 9.375 35.1875 9.84375 35.1875 9.84375V15.75H32.1613C29.1796 15.75 28.25 17.6001 28.25 19.4981V24H34.9062L33.8422 30.9375H28.25V47.7084C39.7235 45.9081 48.5 35.9792 48.5 24Z" fill="#1877F2"/>
<path d="M33.8422 30.9375L34.9062 24H28.25V19.4981C28.25 17.5999 29.1798 15.75 32.1613 15.75H35.1875V9.84375C35.1875 9.84375 32.441 9.375 29.8151 9.375C24.3331 9.375 20.75 12.6975 20.75 18.7125V24H14.6562V30.9375H20.75V47.7084C21.9905 47.9028 23.2443 48.0003 24.5 48C25.7557 48.0004 27.0095 47.9029 28.25 47.7084V30.9375H33.8422Z" fill="white"/>
</g>
<defs>
<clipPath id="clip0_183_2413">
<rect width="48" height="48" fill="white" transform="translate(0.5)"/>
</clipPath>
</defs>
</svg>
