<svg width="271" height="264" viewBox="0 0 271 264" fill="none" xmlns="http://www.w3.org/2000/svg">
<path d="M188.025 261.849C156.362 267.771 121.751 256.631 96.4509 238.325C76.803 224.112 64.0378 203.852 56.6287 180.29C49.5947 157.918 47.1272 134.841 29.9073 118.247C16.3788 105.205 1.44223 91.1305 5.65343 68.9493C7.75903 57.8686 12.4966 41.6489 19.8136 32.7593C43.0344 4.49165 73.9143 -1.58169 107.17 6.38011C135.661 13.2233 164.317 29.897 179.181 54.7958C182.041 59.5496 184.483 64.5428 186.478 69.7192C191.709 83.3661 190.841 109.147 200.711 120.3C212.325 133.46 235.585 131.486 249.324 141.428C263.524 151.719 269.933 179.803 262.826 201.122C250.627 237.647 226.182 254.736 188.025 261.849Z" fill="#507DBC"/>
<g opacity="0.6">
<path d="M188.025 261.849C156.362 267.771 121.751 256.631 96.4509 238.325C76.803 224.112 64.0378 203.852 56.6287 180.29C49.5947 157.918 47.1272 134.841 29.9073 118.247C16.3788 105.205 1.44223 91.1305 5.65343 68.9493C7.75903 57.8686 12.4966 41.6489 19.8136 32.7593C43.0344 4.49165 73.9143 -1.58169 107.17 6.38011C135.661 13.2233 164.317 29.897 179.181 54.7958C182.041 59.5496 184.483 64.5428 186.478 69.7192C191.709 83.3661 190.841 109.147 200.711 120.3C212.325 133.46 235.585 131.486 249.324 141.428C263.524 151.719 269.933 179.803 262.826 201.122C250.627 237.647 226.182 254.736 188.025 261.849Z" fill="white"/>
</g>
<path d="M265.194 91.5779C256.035 56.421 230.518 24.6461 197.322 9.26868C178.463 0.53702 154.552 -3.39782 135.035 3.57698C115.822 10.4531 104.833 24.5803 96.9438 42.9912C88.2648 63.251 80.678 81.7342 61.5171 93.9993C40.0926 107.705 16.8849 112.423 5.5147 138.085C-2.69714 156.68 -1.68382 179.395 8.19276 197.858C14.3385 209.34 24.2414 219.44 36.6052 223.211C48.0018 226.692 60.155 224.527 71.2686 220.967C87.2186 215.881 105.248 205.984 122.81 210.228C152.005 217.289 176.029 236.548 220.628 214.584C255.134 197.575 272.419 163.208 270.347 125.544C269.758 114.079 268.032 102.701 265.194 91.5779Z" fill="#263238"/>
<path d="M19.7603 152.344C19.2022 152.359 18.661 152.538 18.2051 152.86C17.7491 153.182 17.3989 153.632 17.1986 154.153C16.9984 154.675 16.9571 155.243 17.0801 155.788C17.203 156.332 17.4846 156.828 17.8893 157.213C18.2941 157.597 18.8037 157.853 19.3538 157.948C19.9039 158.043 20.4698 157.972 20.9799 157.746C21.49 157.519 21.9215 157.146 22.2197 156.674C22.518 156.202 22.6696 155.653 22.6555 155.095C22.6461 154.724 22.5638 154.359 22.4132 154.02C22.2626 153.681 22.0466 153.375 21.7778 153.12C21.5089 152.864 21.1923 152.664 20.8462 152.531C20.5 152.398 20.131 152.335 19.7603 152.344Z" fill="white"/>
<path d="M175.318 51.3083C174.76 51.3228 174.219 51.5024 173.763 51.8245C173.307 52.1465 172.956 52.5965 172.756 53.1176C172.556 53.6387 172.515 54.2074 172.638 54.7519C172.761 55.2964 173.042 55.7923 173.447 56.1767C173.852 56.5612 174.361 56.8171 174.911 56.9119C175.461 57.0068 176.027 56.9365 176.537 56.7098C177.048 56.4831 177.479 56.1102 177.777 55.6384C178.076 55.1665 178.227 54.6168 178.213 54.0588C178.204 53.688 178.121 53.3228 177.971 52.9839C177.82 52.645 177.604 52.3391 177.335 52.0837C177.067 51.8282 176.75 51.6283 176.404 51.4952C176.058 51.3622 175.689 51.2987 175.318 51.3083Z" fill="white"/>
<path d="M185.82 189.613C185.261 189.627 184.719 189.805 184.263 190.126C183.806 190.448 183.454 190.897 183.253 191.418C183.052 191.939 183.01 192.508 183.132 193.053C183.254 193.598 183.535 194.095 183.94 194.48C184.344 194.865 184.854 195.121 185.404 195.217C185.954 195.312 186.521 195.242 187.031 195.016C187.542 194.789 187.974 194.416 188.272 193.944C188.571 193.472 188.722 192.922 188.708 192.364C188.7 191.993 188.618 191.628 188.468 191.289C188.318 190.951 188.103 190.645 187.835 190.389C187.566 190.134 187.25 189.934 186.904 189.8C186.559 189.667 186.19 189.604 185.82 189.613Z" fill="white"/>
<path d="M252.614 132.433C252.055 132.446 251.513 132.625 251.056 132.946C250.6 133.267 250.248 133.717 250.047 134.238C249.846 134.759 249.804 135.328 249.926 135.873C250.048 136.418 250.329 136.914 250.734 137.3C251.138 137.685 251.648 137.941 252.198 138.037C252.748 138.132 253.315 138.062 253.825 137.835C254.336 137.609 254.767 137.236 255.066 136.764C255.365 136.292 255.516 135.742 255.502 135.184C255.483 134.436 255.168 133.727 254.627 133.211C254.085 132.695 253.361 132.415 252.614 132.433Z" fill="white"/>
<path d="M140.582 200.306C140.023 200.318 139.481 200.495 139.023 200.816C138.565 201.136 138.213 201.585 138.011 202.106C137.808 202.627 137.765 203.196 137.887 203.742C138.008 204.287 138.289 204.784 138.693 205.17C139.098 205.556 139.607 205.813 140.158 205.909C140.708 206.005 141.275 205.935 141.786 205.709C142.297 205.482 142.729 205.11 143.028 204.637C143.326 204.165 143.478 203.615 143.464 203.056C143.456 202.686 143.374 202.322 143.225 201.983C143.075 201.645 142.861 201.339 142.593 201.084C142.325 200.829 142.01 200.628 141.665 200.495C141.32 200.361 140.952 200.297 140.582 200.306Z" fill="white"/>
<path d="M225.149 195.075C224.591 195.089 224.05 195.269 223.594 195.591C223.138 195.913 222.788 196.363 222.587 196.884C222.387 197.405 222.346 197.974 222.469 198.518C222.592 199.063 222.873 199.559 223.278 199.943C223.683 200.328 224.192 200.583 224.742 200.678C225.293 200.773 225.858 200.703 226.369 200.476C226.879 200.25 227.31 199.877 227.608 199.405C227.907 198.933 228.058 198.383 228.044 197.825C228.036 197.454 227.954 197.089 227.804 196.749C227.653 196.41 227.437 196.104 227.168 195.848C226.899 195.592 226.582 195.393 226.236 195.26C225.889 195.127 225.52 195.064 225.149 195.075Z" fill="white"/>
<path d="M129.765 16.9081C129.207 16.9225 128.666 17.1022 128.21 17.4242C127.754 17.7462 127.404 18.1962 127.203 18.7173C127.003 19.2384 126.962 19.8071 127.085 20.3516C127.208 20.8962 127.49 21.392 127.894 21.7765C128.299 22.1609 128.809 22.4168 129.359 22.5117C129.909 22.6066 130.475 22.5362 130.985 22.3095C131.495 22.0828 131.926 21.71 132.225 21.2381C132.523 20.7662 132.674 20.2165 132.66 19.6585C132.651 19.2878 132.569 18.9225 132.418 18.5836C132.267 18.2447 132.052 17.9388 131.783 17.6834C131.514 17.428 131.197 17.228 130.851 17.095C130.505 16.9619 130.136 16.8984 129.765 16.9081Z" fill="white"/>
<path d="M128.811 122.188C125.732 119.964 122.402 123.465 124.778 126.426C127.857 128.617 131.186 125.123 128.811 122.188Z" fill="white"/>
<path d="M37.5527 131.67C38.3303 131.67 38.9608 131.039 38.9608 130.262C38.9608 129.484 38.3303 128.854 37.5527 128.854C36.775 128.854 36.1445 129.484 36.1445 130.262C36.1445 131.039 36.775 131.67 37.5527 131.67Z" fill="white"/>
<path d="M100.799 134.69C100.518 134.423 100.143 134.279 99.7553 134.288C99.3678 134.298 99.0001 134.462 98.7331 134.743C98.4661 135.024 98.3217 135.399 98.3315 135.787C98.3414 136.174 98.5048 136.542 98.7858 136.809C98.9249 136.941 99.0887 137.045 99.2678 137.113C99.4469 137.182 99.6379 137.215 99.8297 137.21C100.022 137.205 100.211 137.163 100.386 137.085C100.561 137.007 100.72 136.895 100.852 136.756C100.984 136.617 101.088 136.453 101.157 136.274C101.225 136.095 101.258 135.904 101.253 135.712C101.249 135.52 101.206 135.331 101.128 135.156C101.05 134.981 100.938 134.822 100.799 134.69Z" fill="white"/>
<path d="M113.308 80.1287C110.229 77.9046 106.906 81.4052 109.275 84.3662C112.354 86.5902 115.684 83.0897 113.308 80.1287Z" fill="white"/>
<path d="M85.2973 92.6833C85.0163 92.4163 84.6408 92.2719 84.2533 92.2817C83.8658 92.2916 83.4982 92.455 83.2312 92.736C82.9642 93.0169 82.8197 93.3924 82.8296 93.7799C82.8394 94.1674 83.0028 94.5351 83.2838 94.8021C83.5648 95.0691 83.9403 95.2135 84.3278 95.2037C84.7152 95.1938 85.0829 95.0304 85.3499 94.7494C85.6169 94.4685 85.7614 94.0929 85.7515 93.7055C85.7416 93.318 85.5783 92.9503 85.2973 92.6833Z" fill="white"/>
<path d="M156.954 160.681C156.674 160.688 156.402 160.777 156.173 160.938C155.944 161.1 155.768 161.325 155.667 161.586C155.566 161.848 155.545 162.133 155.607 162.406C155.668 162.679 155.81 162.928 156.013 163.121C156.216 163.314 156.471 163.442 156.747 163.49C157.023 163.537 157.307 163.502 157.563 163.387C157.819 163.273 158.035 163.086 158.184 162.849C158.333 162.612 158.409 162.336 158.401 162.056C158.391 161.682 158.233 161.327 157.961 161.07C157.69 160.812 157.328 160.672 156.954 160.681Z" fill="white"/>
<path d="M174.028 118.378C173.748 118.384 173.476 118.472 173.246 118.632C173.016 118.793 172.839 119.018 172.737 119.279C172.635 119.54 172.613 119.826 172.674 120.099C172.735 120.373 172.876 120.623 173.079 120.816C173.281 121.01 173.537 121.139 173.813 121.186C174.09 121.234 174.374 121.199 174.63 121.085C174.886 120.972 175.103 120.784 175.252 120.547C175.402 120.31 175.477 120.034 175.469 119.753C175.459 119.38 175.302 119.027 175.032 118.769C174.762 118.512 174.401 118.371 174.028 118.378Z" fill="white"/>
<path d="M116.763 61.481C116.483 61.4863 116.21 61.5748 115.98 61.7351C115.75 61.8955 115.573 62.1206 115.472 62.3818C115.37 62.643 115.348 62.9286 115.409 63.2022C115.469 63.4759 115.61 63.7253 115.813 63.9188C116.016 64.1124 116.272 64.2413 116.548 64.2893C116.824 64.3372 117.108 64.302 117.364 64.1882C117.62 64.0743 117.837 63.8869 117.986 63.6498C118.136 63.4126 118.212 63.1364 118.204 62.8562C118.194 62.4833 118.036 62.1295 117.766 61.872C117.497 61.6144 117.136 61.4739 116.763 61.481Z" fill="white"/>
<path d="M149.446 89.367C149.166 89.3736 148.894 89.4632 148.665 89.6243C148.436 89.7855 148.26 90.011 148.159 90.2723C148.058 90.5336 148.037 90.8189 148.099 91.0921C148.161 91.3653 148.302 91.6141 148.505 91.8069C148.708 91.9998 148.964 92.1281 149.24 92.1755C149.515 92.223 149.799 92.1874 150.055 92.0734C150.311 91.9594 150.527 91.772 150.676 91.535C150.826 91.2981 150.901 91.0221 150.893 90.7422C150.883 90.3681 150.725 90.0134 150.454 89.7556C150.182 89.4979 149.82 89.3581 149.446 89.367Z" fill="white"/>
<path d="M34.8354 172.196C34.5554 172.203 34.2837 172.292 34.0547 172.453C33.8257 172.615 33.6496 172.84 33.5488 173.101C33.4481 173.363 33.4271 173.648 33.4887 173.921C33.5502 174.194 33.6914 174.443 33.8944 174.636C34.0975 174.829 34.3532 174.957 34.6292 175.005C34.9052 175.052 35.189 175.017 35.4448 174.903C35.7006 174.789 35.9168 174.601 36.066 174.364C36.2152 174.127 36.2907 173.851 36.283 173.571C36.2787 173.386 36.2378 173.203 36.1627 173.033C36.0875 172.864 35.9796 172.711 35.8451 172.583C35.7105 172.455 35.5521 172.355 35.3788 172.289C35.2055 172.222 35.0208 172.191 34.8354 172.196Z" fill="white"/>
<path d="M38.8419 200.799C38.5617 200.805 38.2893 200.893 38.0594 201.054C37.8295 201.214 37.6524 201.439 37.5506 201.7C37.4488 201.961 37.427 202.247 37.4878 202.521C37.5486 202.794 37.6893 203.044 37.8921 203.237C38.0949 203.431 38.3506 203.56 38.6268 203.608C38.903 203.656 39.1872 203.62 39.4434 203.507C39.6996 203.393 39.9161 203.205 40.0656 202.968C40.2151 202.731 40.2907 202.455 40.283 202.175C40.2787 201.99 40.238 201.807 40.1633 201.638C40.0885 201.469 39.9812 201.316 39.8474 201.188C39.7136 201.061 39.5559 200.961 39.3834 200.894C39.2108 200.827 39.0269 200.795 38.8419 200.799Z" fill="white"/>
<path d="M196.328 177.118C196.321 176.838 196.232 176.566 196.071 176.337C195.91 176.108 195.684 175.932 195.423 175.831C195.161 175.731 194.876 175.71 194.603 175.771C194.33 175.833 194.081 175.974 193.888 176.177C193.695 176.38 193.567 176.636 193.519 176.912C193.472 177.188 193.508 177.472 193.622 177.727C193.736 177.983 193.923 178.199 194.16 178.349C194.397 178.498 194.673 178.573 194.953 178.566C195.327 178.555 195.682 178.397 195.939 178.126C196.197 177.854 196.337 177.492 196.328 177.118Z" fill="white"/>
<path d="M196.545 204.872C196.267 204.88 195.997 204.97 195.771 205.131C195.544 205.292 195.369 205.517 195.27 205.776C195.17 206.036 195.15 206.32 195.212 206.591C195.273 206.862 195.413 207.109 195.615 207.301C195.817 207.492 196.071 207.62 196.345 207.667C196.619 207.715 196.901 207.68 197.155 207.567C197.41 207.455 197.625 207.269 197.774 207.034C197.923 206.799 197.999 206.526 197.993 206.248C197.988 206.062 197.947 205.879 197.872 205.71C197.797 205.54 197.689 205.387 197.555 205.259C197.42 205.131 197.262 205.031 197.088 204.965C196.915 204.899 196.731 204.867 196.545 204.872Z" fill="white"/>
<path d="M246.77 162.688C246.49 162.695 246.218 162.784 245.989 162.945C245.76 163.106 245.584 163.332 245.483 163.593C245.383 163.854 245.362 164.14 245.423 164.413C245.485 164.686 245.626 164.935 245.829 165.128C246.032 165.321 246.288 165.449 246.564 165.496C246.84 165.544 247.124 165.508 247.379 165.394C247.635 165.28 247.851 165.093 248.001 164.856C248.15 164.619 248.225 164.343 248.218 164.063C248.207 163.689 248.049 163.334 247.778 163.077C247.506 162.819 247.144 162.679 246.77 162.688Z" fill="white"/>
<path d="M190.038 58.2436C190.816 58.2436 191.446 57.6132 191.446 56.8355C191.446 56.0578 190.816 55.4274 190.038 55.4274C189.26 55.4274 188.63 56.0578 188.63 56.8355C188.63 57.6132 189.26 58.2436 190.038 58.2436Z" fill="white"/>
<path d="M162.247 141.029C162.387 138.519 160.466 136.369 157.955 136.229C155.444 136.089 153.295 138.01 153.155 140.521C153.014 143.032 154.936 145.181 157.447 145.321C159.957 145.462 162.107 143.54 162.247 141.029Z" fill="white"/>
<path d="M195.212 39.5609C197.232 39.5105 198.828 37.8322 198.778 35.8123C198.728 33.7924 197.049 32.1958 195.029 32.2462C193.01 32.2966 191.413 33.975 191.463 35.9949C191.514 38.0148 193.192 39.6113 195.212 39.5609Z" fill="white"/>
<path d="M14.8645 186.205C14.542 189.146 14.2065 189.495 11.3047 189.949C14.2459 190.278 14.5947 190.607 15.0487 193.515C15.3777 190.567 15.7067 190.225 18.6151 189.765C15.6738 189.442 15.3382 189.126 14.8645 186.205Z" fill="white"/>
<path d="M215.982 200.49C215.719 202.885 215.462 203.155 213.087 203.537C215.475 203.8 215.719 204.056 216.127 206.432C216.397 204.043 216.653 203.8 219.029 203.392C216.634 203.122 216.364 202.885 215.982 200.49Z" fill="white"/>
<path d="M148.795 134.341C148.531 136.73 148.275 136.973 145.899 137.388C148.288 137.651 148.531 137.908 148.946 140.283C149.209 137.888 149.466 137.618 151.841 137.237C149.446 136.973 149.176 136.717 148.795 134.341Z" fill="white"/>
<path d="M258.516 126.09C258.246 128.479 257.99 128.722 255.614 129.137C258.009 129.4 258.279 129.656 258.661 132.032C258.924 129.637 259.181 129.367 261.556 128.985C259.167 128.722 258.898 128.465 258.516 126.09Z" fill="white"/>
<path d="M44.9977 129.992C46.6397 129.951 47.9377 128.587 47.8967 126.945C47.8557 125.303 46.4913 124.005 44.8492 124.046C43.2071 124.087 41.9092 125.451 41.9502 127.093C41.9912 128.735 43.3556 130.033 44.9977 129.992Z" fill="white"/>
<path d="M109.979 34.5819C109.709 36.977 109.453 37.2139 107.077 37.6284C109.472 37.8916 109.742 38.1483 110.124 40.5236C110.387 38.1351 110.644 37.8917 113.019 37.4771C110.63 37.2139 110.361 36.9573 109.979 34.5819Z" fill="white"/>
<path d="M103.603 191.679C108.658 191.679 112.756 187.582 112.756 182.527C112.756 177.472 108.658 173.374 103.603 173.374C98.548 173.374 94.4502 177.472 94.4502 182.527C94.4502 187.582 98.548 191.679 103.603 191.679Z" fill="white" stroke="white" stroke-width="1.04814" stroke-linecap="round" stroke-linejoin="round"/>
<path d="M101.274 175.808C100.648 175.259 99.9276 174.827 99.1484 174.532C99.8805 174.119 100.667 173.811 101.484 173.617C102.347 174.166 103.169 174.775 103.945 175.44C107.294 178.335 106.393 178.072 111.183 179.73C111.626 179.881 112.053 180.073 112.46 180.303C112.621 180.949 112.714 181.611 112.736 182.277C112.762 183.43 112.57 184.577 112.17 185.659C110.453 185.185 108.176 184.402 107.104 183.382C105.301 181.665 104.926 178.993 101.274 175.808Z" fill="#507DBC"/>
<path d="M110.407 188.646C109.734 189.4 108.94 190.036 108.058 190.528C106.327 189.383 105.505 188.139 103.044 187.093C100.892 186.179 97.3654 186.054 95.1479 186.08C94.7067 185.037 94.4635 183.922 94.4307 182.79C94.4307 182.632 94.4307 182.481 94.4307 182.323C97.0286 182.459 99.592 182.981 102.037 183.869C105.564 185.126 107.308 187.534 110.407 188.646Z" fill="#507DBC"/>
<path d="M101.07 179.388C99.4713 180.237 96.9709 179.875 95.0166 179.388C95.3608 178.446 95.8589 177.568 96.4905 176.789C99.0765 177.19 103.281 178.21 101.07 179.388Z" fill="#507DBC"/>
<path d="M107.689 174.17C118.217 174.69 126.949 177.592 127.034 181.079C127.133 185.172 116.506 188.751 103.248 189.08C89.989 189.409 79.1912 186.363 79.0925 182.277C79.0004 178.579 87.6926 175.295 99.1418 174.46" stroke="white" stroke-width="1.04814" stroke-linecap="round" stroke-linejoin="round"/>
<path d="M109.11 174.545C115.598 175.302 120.243 177.493 120.296 180.191C120.382 183.698 112.723 186.731 103.188 186.968C93.6537 187.205 85.8432 184.553 85.7577 181.046C85.6787 178.118 91.0217 175.519 98.3255 174.604" stroke="white" stroke-width="1.04814" stroke-linecap="round" stroke-linejoin="round"/>
<path d="M126.837 184.04C126.829 183.729 126.729 183.428 126.55 183.174C126.371 182.919 126.12 182.724 125.83 182.612C125.54 182.501 125.223 182.478 124.919 182.546C124.616 182.614 124.34 182.771 124.125 182.996C123.911 183.222 123.768 183.506 123.715 183.812C123.662 184.118 123.701 184.434 123.828 184.718C123.954 185.002 124.161 185.243 124.424 185.409C124.687 185.575 124.993 185.66 125.304 185.652C125.511 185.648 125.715 185.603 125.904 185.519C126.093 185.436 126.264 185.316 126.407 185.166C126.549 185.016 126.661 184.839 126.734 184.646C126.808 184.453 126.843 184.247 126.837 184.04Z" fill="#507DBC"/>
<path d="M87.5939 180.75C87.586 180.439 87.4859 180.137 87.3063 179.883C87.1267 179.629 86.8757 179.433 86.5851 179.322C86.2945 179.21 85.9773 179.188 85.6738 179.257C85.3702 179.326 85.094 179.483 84.8799 179.709C84.6659 179.935 84.5238 180.219 84.4715 180.526C84.4193 180.833 84.4593 181.149 84.5864 181.433C84.7136 181.717 84.9222 181.957 85.1858 182.122C85.4494 182.288 85.7563 182.371 86.0674 182.362C86.2736 182.357 86.4768 182.311 86.6653 182.227C86.8538 182.144 87.0239 182.023 87.1657 181.873C87.3076 181.724 87.4184 181.547 87.4919 181.355C87.5654 181.162 87.6001 180.956 87.5939 180.75Z" fill="#507DBC"/>
<path d="M201.136 198.307C201.754 190.522 195.944 183.71 188.159 183.092C180.374 182.473 173.562 188.283 172.944 196.068C172.325 203.853 178.135 210.665 185.92 211.284C193.705 211.902 200.517 206.092 201.136 198.307Z" fill="white" stroke="white" stroke-width="1.04814" stroke-linecap="round" stroke-linejoin="round"/>
<path d="M193.973 189.422L201.066 198.871C201.293 196.995 201.138 195.093 200.612 193.278L193.973 189.422Z" fill="#507DBC"/>
<path d="M179.478 185.257L196.342 207.833C197.666 206.673 198.76 205.273 199.566 203.708L185.386 183.158C183.285 183.409 181.266 184.126 179.478 185.257Z" fill="#507DBC"/>
<path d="M186.893 211.308L179.562 201.359L183.51 210.86C184.615 211.15 185.751 211.3 186.893 211.308Z" fill="#507DBC"/>
<path d="M192.591 210.176L175.865 188.528C175.714 188.725 175.575 188.936 175.431 189.146L187.663 211.314C189.361 211.232 191.03 210.847 192.591 210.176Z" fill="#507DBC"/>
<path d="M244.634 122.698C254.341 104.836 247.729 82.4879 229.867 72.7817C212.006 63.0754 189.657 69.6868 179.951 87.5487C170.244 105.411 176.856 127.759 194.718 137.465C212.58 147.172 234.928 140.56 244.634 122.698Z" fill="white"/>
<mask id="mask0_224_5117" style="mask-type:luminance" maskUnits="userSpaceOnUse" x="175" y="68" width="75" height="74">
<path d="M244.634 122.698C254.341 104.836 247.729 82.4878 229.867 72.7815C212.006 63.0752 189.657 69.6867 179.951 87.5486C170.244 105.41 176.856 127.759 194.718 137.465C212.58 147.171 234.928 140.56 244.634 122.698Z" fill="white"/>
</mask>
<g mask="url(#mask0_224_5117)">
<path d="M245.679 89.6302L199.296 83.9451L238.592 79.372C238.059 78.8193 237.5 78.2929 236.927 77.7731L185.873 79.4905C183.85 81.5685 182.082 83.8814 180.609 86.3797L193.249 88.005L178.536 90.4133L196.658 93.8349L175.839 100.06C175.766 100.586 175.707 101.106 175.654 101.632L225.662 99.4344L193.151 107.074L210.647 109.252L194.545 113.818L248.508 111.66C249.41 106.72 249.284 101.646 248.14 96.7564L234.019 94.6245L247.297 93.769C246.839 92.3589 246.299 90.9769 245.679 89.6302Z" fill="#507DBC"/>
<path d="M246.33 119.115L202.395 120.214L225.774 122.899L186.623 131.505C193.394 138.101 202.445 141.837 211.897 141.937C221.35 142.038 230.478 138.495 237.388 132.045L222.359 134.387L241.599 127.399C243.532 124.857 245.122 122.072 246.33 119.115Z" fill="#507DBC"/>
<path d="M194.671 72.8381L219.412 72.3183L211.805 70.2917L218.234 68.8243C210.152 67.4925 201.856 68.9056 194.671 72.8381Z" fill="#507DBC"/>
<path d="M193.177 120.214L178.339 119.293C179.826 122.847 181.857 126.148 184.36 129.077L193.177 120.214Z" fill="#507DBC"/>
</g>
<path d="M244.634 122.698C254.341 104.836 247.729 82.4879 229.867 72.7817C212.006 63.0754 189.657 69.6868 179.951 87.5487C170.244 105.411 176.856 127.759 194.718 137.465C212.58 147.172 234.928 140.56 244.634 122.698Z" stroke="#263238" stroke-width="1.04814" stroke-linecap="round" stroke-linejoin="round"/>
<path d="M228.189 47.3472C221.958 45.6825 213.792 54.322 206.515 68.7651C207.823 68.5626 209.14 68.4286 210.463 68.3637C215.878 57.5528 221.412 51.2163 225.425 52.2822C232.552 54.1838 232.216 78.6878 224.662 107.008C217.108 135.328 205.218 156.759 198.092 154.858C194.42 153.877 192.736 146.889 192.993 136.473C191.87 135.782 190.785 135.03 189.742 134.223C189.367 148.745 192.183 158.951 198.007 160.503C207.877 163.135 222.622 139.934 230.953 108.686C239.283 77.4376 238.059 49.9726 228.189 47.3472Z" fill="#507DBC" stroke="#263238" stroke-width="1.04814" stroke-linecap="round" stroke-linejoin="round"/>
<path d="M160.48 44.8007C170.576 44.8007 178.76 36.6168 178.76 26.5214C178.76 16.4261 170.576 8.24219 160.48 8.24219C150.385 8.24219 142.201 16.4261 142.201 26.5214C142.201 36.6168 150.385 44.8007 160.48 44.8007Z" fill="white"/>
<mask id="mask1_224_5117" style="mask-type:luminance" maskUnits="userSpaceOnUse" x="142" y="8" width="37" height="37">
<path d="M160.48 44.8007C170.576 44.8007 178.76 36.6168 178.76 26.5214C178.76 16.4261 170.576 8.24219 160.48 8.24219C150.385 8.24219 142.201 16.4261 142.201 26.5214C142.201 36.6168 150.385 44.8007 160.48 44.8007Z" fill="white"/>
</mask>
<g mask="url(#mask1_224_5117)">
<path d="M155.525 8.9331C161.447 13.5391 172.364 25.1067 165.593 44.0769C169.854 42.8338 173.517 40.0829 175.898 36.3375C178.28 32.5921 179.218 28.1081 178.536 23.7222C177.854 19.3363 175.6 15.3483 172.194 12.5023C168.788 9.65626 164.463 8.14672 160.026 8.25536C158.503 8.29101 156.991 8.51872 155.525 8.9331Z" fill="#507DBC"/>
</g>
<path d="M160.48 44.8007C170.576 44.8007 178.76 36.6168 178.76 26.5214C178.76 16.4261 170.576 8.24219 160.48 8.24219C150.385 8.24219 142.201 16.4261 142.201 26.5214C142.201 36.6168 150.385 44.8007 160.48 44.8007Z" stroke="#263238" stroke-width="1.04814" stroke-linecap="round" stroke-linejoin="round"/>
<path d="M154.203 19.3689C155.718 19.3689 156.947 18.1405 156.947 16.6251C156.947 15.1097 155.718 13.8812 154.203 13.8812C152.687 13.8812 151.459 15.1097 151.459 16.6251C151.459 18.1405 152.687 19.3689 154.203 19.3689Z" fill="#507DBC" stroke="#263238" stroke-width="1.04814" stroke-linecap="round" stroke-linejoin="round"/>
<path d="M167.12 15.3881C167.927 15.3881 168.581 14.7341 168.581 13.9273C168.581 13.1206 167.927 12.4666 167.12 12.4666C166.313 12.4666 165.659 13.1206 165.659 13.9273C165.659 14.7341 166.313 15.3881 167.12 15.3881Z" fill="#507DBC" stroke="#263238" stroke-width="1.04814" stroke-linecap="round" stroke-linejoin="round"/>
<path d="M163.54 26.8109C164.852 26.8109 165.916 25.7474 165.916 24.4356C165.916 23.1237 164.852 22.0602 163.54 22.0602C162.229 22.0602 161.165 23.1237 161.165 24.4356C161.165 25.7474 162.229 26.8109 163.54 26.8109Z" fill="#507DBC" stroke="#263238" stroke-width="1.04814" stroke-linecap="round" stroke-linejoin="round"/>
<path d="M148.406 27.923C149.417 27.923 150.236 27.104 150.236 26.0938C150.236 25.0835 149.417 24.2645 148.406 24.2645C147.396 24.2645 146.577 25.0835 146.577 26.0938C146.577 27.104 147.396 27.923 148.406 27.923Z" fill="#507DBC" stroke="#263238" stroke-width="1.04814" stroke-linecap="round" stroke-linejoin="round"/>
<path d="M162.573 40.3658C164.39 40.3658 165.863 38.8928 165.863 37.0758C165.863 35.2587 164.39 33.7858 162.573 33.7858C160.756 33.7858 159.283 35.2587 159.283 37.0758C159.283 38.8928 160.756 40.3658 162.573 40.3658Z" fill="#507DBC" stroke="#263238" stroke-width="1.04814" stroke-linecap="round" stroke-linejoin="round"/>
<path d="M173.798 26.5544C174.503 26.5544 175.075 25.9829 175.075 25.2779C175.075 24.5729 174.503 24.0013 173.798 24.0013C173.093 24.0013 172.521 24.5729 172.521 25.2779C172.521 25.9829 173.093 26.5544 173.798 26.5544Z" fill="#507DBC" stroke="#263238" stroke-width="1.04814" stroke-linecap="round" stroke-linejoin="round"/>
<path d="M151.742 37.3456C152.854 37.3456 153.755 36.4441 153.755 35.3321C153.755 34.2201 152.854 33.3186 151.742 33.3186C150.63 33.3186 149.729 34.2201 149.729 35.3321C149.729 36.4441 150.63 37.3456 151.742 37.3456Z" fill="#507DBC" stroke="#263238" stroke-width="1.04814" stroke-linecap="round" stroke-linejoin="round"/>
<path d="M52.5291 77.9047C60.3386 77.9047 66.6695 71.5739 66.6695 63.7643C66.6695 55.9548 60.3386 49.6239 52.5291 49.6239C44.7196 49.6239 38.3887 55.9548 38.3887 63.7643C38.3887 71.5739 44.7196 77.9047 52.5291 77.9047Z" fill="#507DBC" stroke="#263238" stroke-width="1.04814" stroke-linecap="round" stroke-linejoin="round"/>
<path d="M55.602 53.2231C56.5311 52.3322 57.6089 51.6106 58.7867 51.0912C57.6234 50.5144 56.3855 50.1025 55.1085 49.8673C53.8203 50.7779 52.5998 51.7806 51.4566 52.8678C46.515 57.5922 47.8837 57.0987 40.593 60.04C39.9249 60.3095 39.2819 60.6376 38.6717 61.0204C38.1046 63.8022 38.4031 66.691 39.5271 69.298C42.1591 68.4295 45.5938 67.0477 47.1664 65.3961C49.8577 62.5667 50.213 58.4213 55.602 53.2231Z" fill="#263238" stroke="#263238" stroke-width="1.04814" stroke-linecap="round" stroke-linejoin="round"/>
<path d="M42.501 73.7133C43.5998 74.822 44.8736 75.7424 46.2713 76.4374C48.8573 74.5358 50.0285 72.5486 53.7396 70.7523C57.0296 69.1731 62.4252 68.7059 65.8139 68.5809C66.4183 66.9276 66.7062 65.1753 66.6627 63.4156C66.6627 63.1721 66.6298 62.9352 66.6101 62.6918C62.6115 63.1024 58.6957 64.1025 54.9898 65.6593C49.6995 67.9294 47.2057 71.7788 42.501 73.7133Z" fill="#263238" stroke="#263238" stroke-width="1.04814" stroke-linecap="round" stroke-linejoin="round"/>
<path d="M56.2009 58.7307C58.7276 59.9151 62.5572 59.1715 65.5379 58.2438C64.9336 56.8178 64.0976 55.5016 63.0638 54.3484C59.1027 55.1972 52.6938 57.0857 56.2009 58.7307Z" fill="#263238" stroke="#263238" stroke-width="1.04814" stroke-linecap="round" stroke-linejoin="round"/>
<path d="M120.323 98.862C117.033 97.6908 113.5 97.3486 110.492 99.2437C107.946 100.849 106.755 104.435 103.564 104.896C99.7671 105.442 99.2209 104.659 96.8719 106.291C96.2026 106.746 95.6667 107.371 95.3197 108.102C94.9727 108.833 94.8271 109.643 94.8979 110.449C94.8979 110.449 97.4312 107.074 100.748 107.673C101.171 107.698 101.572 107.868 101.886 108.153C99.4183 108.936 96.5824 108.706 94.8979 110.449C93.2297 112.343 91.7959 114.431 90.6275 116.668C89.6076 118.536 87.3375 117.576 84.6068 119.688C81.8761 121.8 80.5074 122.649 79.606 125.366C78.7045 128.084 77.632 129.525 75.2171 130.736C73.7133 131.481 72.1368 132.07 70.5124 132.492C70.5124 132.492 74.3749 133.874 76.7831 132.664C79.1914 131.453 80.0731 130.249 82.08 127.59C84.0869 124.932 91.0025 125.228 91.0025 125.228C91.0025 125.228 86.4821 126.741 84.133 129.88C81.7839 133.019 81.501 135.427 77.5135 136.217C74.138 136.875 71.8087 136.177 70.0715 137.414C68.3533 137.867 66.8333 138.876 65.7485 140.283C63.2152 143.626 62.6559 144.231 59.05 144.962C55.4442 145.692 52.1081 149.192 50.2592 152.746C48.4102 156.299 48.2194 158.115 43.5015 160.03C38.7836 161.945 36.303 162.662 33.875 165.675C32.657 167.12 31.5568 168.661 30.585 170.281C30.585 170.281 36.0266 164.833 42.7974 163.557C49.5683 162.28 55.0099 156.838 56.0693 153.41C57.1287 149.982 61.8729 151.476 66.4789 148.771C67.1276 148.38 67.7457 147.94 68.3278 147.455C68.6263 147.264 68.8928 147.026 69.1174 146.751C70.9006 145.06 71.96 143.317 73.3615 142.231C74.3272 141.912 75.3384 141.752 76.3554 141.757C83.225 141.625 88.2916 140.895 90.3379 137.151C92.3843 133.407 93.8253 131.479 97.1417 132.078C100.458 132.677 102.925 131.894 104.195 131.709C105.465 131.525 106.242 130.979 103.294 134.42C100.346 137.862 96.714 136.664 95.6414 138.112L92.7528 141.974C92.7528 141.974 95.2795 138.592 99.017 139.132C102.754 139.671 108.426 138.638 109.867 136.704C111.308 134.769 114.144 131.999 116.191 131.269C118.237 130.538 122.159 129.334 123.067 128.117C123.581 127.352 124.172 126.642 124.83 125.998C124.903 129.025 122.771 132.249 120.494 134.151C123.521 132.848 126.176 130.813 128.219 128.229C129.091 127.131 129.842 125.942 130.456 124.682C135.312 114.74 130.871 102.626 120.323 98.862Z" fill="white"/>
<path d="M121.751 102.244C121.751 102.244 117.289 100.441 113.763 101.027C110.236 101.612 109.032 104.159 106.821 107.238C104.61 110.318 102.215 110.62 99.53 111.877C97.724 112.66 96.2548 114.059 95.3846 115.825C95.207 116.398 96.0032 115.167 97.6284 114.641C98.9667 114.301 100.349 114.165 101.728 114.239C100.725 116.015 99.1188 117.371 97.2007 118.062C93.9107 119.332 91.6143 119.892 90.4957 120.8C89.7575 121.471 89.1544 122.277 88.7191 123.175C88.3506 123.688 90.318 121.372 92.9895 122.195C95.661 123.017 99.5695 122.563 99.5695 122.563C99.5695 122.563 94.47 123.491 92.4302 125.366C90.3904 127.242 89.614 129.722 88.7125 131.946C87.8111 134.17 85.8502 133.775 84.3631 135.197C83.3522 136.259 82.5429 137.497 81.9746 138.849C83.7891 137.316 85.861 136.118 88.094 135.309C91.6012 134.098 91.0748 133.098 93.2856 130.045C95.4965 126.991 98.8984 126.755 101.57 127.59C104.241 128.426 109.078 126.991 109.078 126.991C109.078 126.991 108.235 129.031 106.913 129.248C105.59 129.466 107.321 130.63 109.262 129.762C111.203 128.893 111.736 127.182 113.835 127.834C115.934 128.485 116.197 128.985 118.132 128.123C120.066 127.261 123.047 124.419 125.62 123.517C128.193 122.616 130.568 115.621 128.91 110.752C127.252 105.883 121.751 102.244 121.751 102.244Z" fill="#507DBC"/>
<path d="M121.343 104.264L117.658 103.172C116.266 102.762 114.773 102.876 113.46 103.494L109.459 105.409C108.416 105.909 107.493 106.63 106.756 107.522C106.018 108.414 105.484 109.455 105.189 110.574L103.695 116.266C103.695 116.266 106.176 123.017 108.65 124.491C111.124 125.965 118.362 125.353 121.494 124.682C124.626 124.011 127.581 120.576 127.818 117.74C128.054 114.904 128.831 111.351 126.956 108.824C125.08 106.297 121.343 104.264 121.343 104.264Z" fill="#263238"/>
<path d="M121.85 110.871C121.602 111.202 121.261 111.452 120.871 111.59C120.481 111.728 120.058 111.747 119.657 111.645C119.256 111.542 118.895 111.324 118.618 111.016C118.341 110.708 118.162 110.325 118.103 109.915C118.044 109.505 118.108 109.087 118.287 108.714C118.466 108.341 118.751 108.029 119.107 107.818C119.463 107.606 119.874 107.506 120.287 107.528C120.7 107.55 121.098 107.694 121.429 107.942C121.649 108.107 121.835 108.313 121.976 108.549C122.117 108.785 122.209 109.047 122.248 109.319C122.287 109.591 122.272 109.868 122.204 110.135C122.136 110.401 122.015 110.651 121.85 110.871Z" fill="white" stroke="#263238" stroke-width="1.04814" stroke-linecap="round" stroke-linejoin="round"/>
<path d="M113.855 110.009C113.661 110.268 113.394 110.465 113.089 110.573C112.783 110.681 112.452 110.696 112.138 110.616C111.823 110.537 111.54 110.365 111.323 110.124C111.106 109.883 110.966 109.583 110.92 109.262C110.874 108.941 110.924 108.613 111.064 108.321C111.204 108.028 111.428 107.784 111.707 107.619C111.986 107.454 112.308 107.375 112.632 107.393C112.955 107.411 113.267 107.524 113.526 107.719C113.698 107.847 113.844 108.008 113.953 108.193C114.063 108.378 114.136 108.583 114.166 108.795C114.197 109.008 114.185 109.225 114.132 109.433C114.078 109.641 113.984 109.837 113.855 110.009Z" fill="white" stroke="#263238" stroke-width="1.04814" stroke-linecap="round" stroke-linejoin="round"/>
<path d="M118.073 117.141C117.89 117.386 117.639 117.572 117.35 117.674C117.062 117.776 116.75 117.791 116.454 117.716C116.157 117.641 115.89 117.479 115.685 117.252C115.48 117.025 115.347 116.742 115.303 116.44C115.259 116.137 115.306 115.828 115.437 115.552C115.568 115.276 115.779 115.045 116.041 114.889C116.304 114.732 116.607 114.657 116.912 114.672C117.218 114.688 117.512 114.794 117.757 114.976C117.92 115.098 118.057 115.25 118.161 115.425C118.266 115.599 118.334 115.792 118.364 115.993C118.393 116.194 118.382 116.399 118.332 116.596C118.283 116.793 118.194 116.978 118.073 117.141Z" fill="white" stroke="#263238" stroke-width="1.04814" stroke-linecap="round" stroke-linejoin="round"/>
<path d="M124.968 113.088C124.882 113.204 124.764 113.292 124.628 113.341C124.492 113.39 124.344 113.398 124.204 113.363C124.064 113.328 123.937 113.252 123.84 113.145C123.743 113.038 123.68 112.904 123.658 112.761C123.637 112.618 123.659 112.472 123.721 112.341C123.783 112.211 123.882 112.101 124.006 112.027C124.13 111.953 124.273 111.917 124.418 111.925C124.562 111.932 124.701 111.982 124.817 112.068C124.972 112.183 125.075 112.356 125.103 112.547C125.132 112.738 125.083 112.933 124.968 113.088Z" fill="white" stroke="#263238" stroke-width="1.04814" stroke-linecap="round" stroke-linejoin="round"/>
<path d="M112.427 116.786C112.286 116.973 112.093 117.115 111.872 117.193C111.651 117.27 111.412 117.281 111.185 117.223C110.958 117.164 110.754 117.04 110.597 116.866C110.441 116.692 110.34 116.475 110.307 116.243C110.274 116.011 110.31 115.774 110.411 115.563C110.513 115.352 110.674 115.175 110.876 115.056C111.077 114.937 111.31 114.88 111.544 114.893C111.778 114.905 112.003 114.987 112.19 115.128C112.44 115.317 112.605 115.598 112.649 115.908C112.693 116.219 112.614 116.534 112.427 116.786Z" fill="white" stroke="#263238" stroke-width="1.04814" stroke-linecap="round" stroke-linejoin="round"/>
<path d="M116.546 107.054C116.401 107.247 116.185 107.374 115.946 107.408C115.708 107.442 115.465 107.38 115.272 107.235C115.08 107.09 114.952 106.875 114.918 106.636C114.884 106.397 114.947 106.155 115.091 105.962C115.163 105.866 115.253 105.786 115.356 105.725C115.459 105.664 115.572 105.624 115.691 105.608C115.809 105.591 115.929 105.598 116.045 105.627C116.161 105.657 116.269 105.709 116.365 105.781C116.46 105.853 116.541 105.942 116.601 106.045C116.662 106.148 116.702 106.262 116.719 106.38C116.736 106.498 116.729 106.619 116.699 106.734C116.67 106.85 116.617 106.959 116.546 107.054Z" fill="white" stroke="#263238" stroke-width="1.04814" stroke-linecap="round" stroke-linejoin="round"/>
</svg>
