<svg width="134" height="139" viewBox="0 0 134 139" fill="none" xmlns="http://www.w3.org/2000/svg">
<g clip-path="url(#clip0_97_2288)">
<path d="M0 71.6289H59C60.1046 71.6289 61 72.5243 61 73.6289V78.6289C61 79.7335 60.1046 80.6289 59 80.6289H0V71.6289Z" fill="#F6F8F9"/>
<path d="M71 73.6289C71 72.5243 71.8954 71.6289 73 71.6289H132V80.6289H73C71.8954 80.6289 71 79.7335 71 78.6289V73.6289Z" fill="#F6F8F9"/>
<path d="M-2 83.6289H53C54.6569 83.6289 56 84.9721 56 86.6289V92.6289C56 93.1812 55.5523 93.6289 55 93.6289H-2V83.6289Z" fill="#F6F8F9"/>
<path d="M76 86.6289C76 84.9721 77.3431 83.6289 79 83.6289H134V93.6289H77C76.4477 93.6289 76 93.1812 76 92.6289V86.6289Z" fill="#F6F8F9"/>
<path d="M-1 97.6289H50C51.6569 97.6289 53 98.9721 53 100.629V104.629C53 105.181 52.5523 105.629 52 105.629H-1V97.6289Z" fill="#F6F8F9"/>
<path d="M78 100.629C78 98.9721 79.3431 97.6289 81 97.6289H132V105.629H79C78.4477 105.629 78 105.181 78 104.629V100.629Z" fill="#F6F8F9"/>
<path d="M0 109.629H48C49.6569 109.629 51 110.972 51 112.629V114.629C51 115.181 50.5523 115.629 50 115.629H0V109.629Z" fill="#F6F8F9"/>
<path d="M11 133.629H58C60.2091 133.629 62 135.42 62 137.629V137.629C62 138.733 61.1046 139.629 60 139.629H11V133.629Z" fill="#F6F8F9"/>
<path d="M81 112.629C81 110.972 82.3431 109.629 84 109.629H132V115.629H82C81.4477 115.629 81 115.181 81 114.629V112.629Z" fill="#F6F8F9"/>
<path d="M70 137.629C70 135.42 71.7909 133.629 74 133.629H121V139.629H72C70.8954 139.629 70 138.733 70 137.629V137.629Z" fill="#F6F8F9"/>
<mask id="path-12-inside-1_97_2288" fill="white">
<path d="M132 73.6289C132 56.1246 125.046 39.3373 112.669 26.9599C100.292 14.5825 83.5043 7.62891 66 7.62891C48.4957 7.6289 31.7084 14.5825 19.331 26.9599C6.95356 39.3373 2.64307e-06 56.1246 0 73.6289L60.9871 73.6289C60.9871 72.2994 61.5153 71.0244 62.4554 70.0843C63.3955 69.1442 64.6705 68.616 66 68.616C67.3295 68.616 68.6045 69.1442 69.5446 70.0843C70.4847 71.0244 71.0129 72.2994 71.0129 73.6289H132Z"/>
</mask>
<path d="M132 73.6289C132 56.1246 125.046 39.3373 112.669 26.9599C100.292 14.5825 83.5043 7.62891 66 7.62891C48.4957 7.6289 31.7084 14.5825 19.331 26.9599C6.95356 39.3373 2.64307e-06 56.1246 0 73.6289L60.9871 73.6289C60.9871 72.2994 61.5153 71.0244 62.4554 70.0843C63.3955 69.1442 64.6705 68.616 66 68.616C67.3295 68.616 68.6045 69.1442 69.5446 70.0843C70.4847 71.0244 71.0129 72.2994 71.0129 73.6289H132Z" stroke="#F6F8F9" stroke-width="6" mask="url(#path-12-inside-1_97_2288)"/>
<path d="M65.7888 105.629L85.5244 139.812H46.0531L65.7888 105.629Z" fill="#F6F8F9"/>
</g>
<defs>
<clipPath id="clip0_97_2288">
<rect y="0.628906" width="134" height="137.871" rx="67" fill="white"/>
</clipPath>
</defs>
</svg>
