<svg width="24" height="24" viewBox="0 0 24 24" fill="none" xmlns="http://www.w3.org/2000/svg">
<path d="M8 16H20V4H18V11L15.5 9.5L13 11V4H8V16ZM6 18V2H22V18H6ZM2 22V6H4V20H18V22H2ZM13 4H20H8H13Z" fill="black"/>
<path d="M19.5 20.0063L18.9563 19.5113C17.025 17.76 15.75 16.6012 15.75 15.1875C15.75 14.0288 16.6575 13.125 17.8125 13.125C18.465 13.125 19.0912 13.4287 19.5 13.905C19.9088 13.4287 20.535 13.125 21.1875 13.125C22.3425 13.125 23.25 14.0288 23.25 15.1875C23.25 16.6012 21.975 17.76 20.0437 19.5113L19.5 20.0063Z" fill="#ED493E"/>
</svg>
