<svg width="24" height="24" viewBox="0 0 24 24" fill="none" xmlns="http://www.w3.org/2000/svg">
<g clip-path="url(#clip0_209_2730)">
<path d="M5.50196 1.21582L5.97512 2.28073C7.52743 5.76813 8.84448 9.48073 9.68696 13.3154C8.74027 13.0097 7.53774 13.5248 7.14399 14.77C5.69532 13.1862 3.37168 14.2638 3.76608 16.3608C4.1664 18.4891 7.80596 19.2435 8.37296 20.335C8.43277 18.9922 11.3047 17.0102 10.8881 14.7891C10.873 14.7096 10.8539 14.6309 10.831 14.5533C10.2564 11.4886 9.37182 8.50137 8.29543 5.63674L16.5644 9.55376L18.5771 15.7706C17.6715 15.6011 16.6152 16.1291 16.251 17.2808C14.8022 15.6971 12.4786 16.7745 12.873 18.8716C13.2733 20.9998 16.9129 21.7528 17.4799 22.8443C17.5396 21.5044 20.3992 19.5281 19.998 17.313L19.9966 17.3101C19.9959 17.3062 19.9958 17.3023 19.9951 17.2984C19.9541 17.08 19.8894 16.8855 19.8046 16.714L16.4809 6.44974L16.4223 6.26815L16.248 6.18752L6.55951 1.7051L5.50196 1.21582ZM7.23193 2.98095L15.7061 6.90232L16.1939 8.40963L7.83844 4.4501C7.64157 3.95632 7.43879 3.46666 7.23188 2.98095H7.23193Z" fill="black"/>
<g clip-path="url(#clip1_209_2730)">
<path d="M17.5349 22.8499L16.9017 22.4773C14.6542 21.1607 13.1699 20.2889 12.8578 18.8907C12.6019 17.7447 13.2767 16.6556 14.3896 16.4072C15.0183 16.2668 15.6887 16.4325 16.1877 16.8156C16.4764 16.2567 17.0127 15.8216 17.6414 15.6812C18.7542 15.4328 19.8281 16.1314 20.084 17.2774C20.3961 18.6756 19.4235 20.0959 17.9495 22.2434L17.5349 22.8499Z" fill="#ED493E"/>
</g>
<g clip-path="url(#clip2_209_2730)">
<path d="M8.36646 20.3488L7.70558 19.9517C5.35996 18.5485 3.81079 17.6193 3.4755 16.1346C3.20069 14.9177 3.89341 13.7638 5.04783 13.5031C5.70001 13.3558 6.39799 13.5335 6.91948 13.9413C7.21508 13.3489 7.76898 12.8886 8.42116 12.7413C9.57558 12.4806 10.697 13.2249 10.9718 14.4418C11.3071 15.9265 10.3075 17.4312 8.79254 19.7062L8.36646 20.3488Z" fill="#ED493E"/>
</g>
</g>
<defs>
<clipPath id="clip0_209_2730">
<rect width="24" height="24" fill="white"/>
</clipPath>
<clipPath id="clip1_209_2730">
<rect width="8.8849" height="9.1203" fill="white" transform="translate(11.4314 15.8995) rotate(-12.5851)"/>
</clipPath>
<clipPath id="clip2_209_2730">
<rect width="9.22205" height="9.68971" fill="white" transform="translate(1.96994 12.9564) rotate(-12.7254)"/>
</clipPath>
</defs>
</svg>
