<svg width="24" height="24" viewBox="0 0 24 24" fill="none" xmlns="http://www.w3.org/2000/svg">
<path d="M16 20C15.1667 20 14.4583 19.7083 13.875 19.125C13.2917 18.5417 13 17.8333 13 17C13 16.1667 13.2917 15.4583 13.875 14.875C14.4583 14.2917 15.1667 14 16 14C16.1833 14 16.3583 14.0123 16.525 14.037C16.6917 14.0623 16.85 14.1167 17 14.2V7C17 6.71667 17.096 6.479 17.288 6.287C17.4793 6.09567 17.7167 6 18 6H21C21.2833 6 21.5207 6.09567 21.712 6.287C21.904 6.479 22 6.71667 22 7C22 7.28333 21.904 7.521 21.712 7.713C21.5207 7.90433 21.2833 8 21 8H19V17C19 17.8333 18.7083 18.5417 18.125 19.125C17.5417 19.7083 16.8333 20 16 20ZM4 8C3.71667 8 3.47933 7.90433 3.288 7.713C3.096 7.521 3 7.28333 3 7C3 6.71667 3.096 6.479 3.288 6.287C3.47933 6.09567 3.71667 6 4 6H14C14.2833 6 14.521 6.09567 14.713 6.287C14.9043 6.479 15 6.71667 15 7C15 7.28333 14.9043 7.521 14.713 7.713C14.521 7.90433 14.2833 8 14 8H4ZM4 12C3.71667 12 3.47933 11.904 3.288 11.712C3.096 11.5207 3 11.2833 3 11C3 10.7167 3.096 10.479 3.288 10.287C3.47933 10.0957 3.71667 10 4 10H14C14.2833 10 14.521 10.0957 14.713 10.287C14.9043 10.479 15 10.7167 15 11C15 11.2833 14.9043 11.5207 14.713 11.712C14.521 11.904 14.2833 12 14 12H4ZM4 16C3.71667 16 3.47933 15.904 3.288 15.712C3.096 15.5207 3 15.2833 3 15C3 14.7167 3.096 14.479 3.288 14.287C3.47933 14.0957 3.71667 14 4 14H10C10.2833 14 10.521 14.0957 10.713 14.287C10.9043 14.479 11 14.7167 11 15C11 15.2833 10.9043 15.5207 10.713 15.712C10.521 15.904 10.2833 16 10 16H4Z" fill="black"/>
</svg>
