<svg width="24" height="24" viewBox="0 0 24 24" fill="none" xmlns="http://www.w3.org/2000/svg">
<path d="M19.1 21.9L16.775 19.575C16.5417 19.7083 16.3083 19.8373 16.075 19.962C15.8417 20.0873 15.6 20.2 15.35 20.3C15.0167 20.4333 14.7083 20.3916 14.425 20.175C14.1417 19.9583 14 19.6583 14 19.275C14 19.0916 14.0543 18.9293 14.163 18.788C14.271 18.646 14.4083 18.5416 14.575 18.475C14.7083 18.425 14.8377 18.3706 14.963 18.312C15.0877 18.254 15.2083 18.1916 15.325 18.125L12 14.8V17.575C12 18.025 11.7957 18.3373 11.387 18.512C10.979 18.6873 10.6167 18.6166 10.3 18.3L7.00001 15H4.00001C3.71668 15 3.47935 14.904 3.28801 14.712C3.09601 14.5206 3.00001 14.2833 3.00001 14V9.99998C3.00001 9.71664 3.09601 9.47898 3.28801 9.28698C3.47935 9.09564 3.71668 8.99998 4.00001 8.99998H6.20001L2.10001 4.89998C1.91668 4.71664 1.82501 4.48331 1.82501 4.19998C1.82501 3.91664 1.91668 3.68331 2.10001 3.49998C2.28335 3.31664 2.51668 3.22498 2.80001 3.22498C3.08335 3.22498 3.31668 3.31664 3.50001 3.49998L20.5 20.5C20.6833 20.6833 20.775 20.9166 20.775 21.2C20.775 21.4833 20.6833 21.7166 20.5 21.9C20.3167 22.0833 20.0833 22.175 19.8 22.175C19.5167 22.175 19.2833 22.0833 19.1 21.9ZM15.35 3.64998C17.05 4.33331 18.4167 5.42498 19.45 6.92498C20.4833 8.42498 21 10.1083 21 11.975C21 12.8583 20.8793 13.7083 20.638 14.525C20.396 15.3416 20.05 16.1 19.6 16.8L18.15 15.35C18.4333 14.8333 18.646 14.2916 18.788 13.725C18.9293 13.1583 19 12.575 19 11.975C19 10.5083 18.596 9.19164 17.788 8.02498C16.9793 6.85831 15.9083 6.00831 14.575 5.47498C14.3917 5.40831 14.25 5.29998 14.15 5.14998C14.05 4.99998 14 4.83331 14 4.64998C14 4.28331 14.1417 3.99164 14.425 3.77498C14.7083 3.55831 15.0167 3.51664 15.35 3.64998ZM16.25 13.45L14 11.2V7.94998C14.7833 8.31664 15.396 8.86664 15.838 9.59998C16.2793 10.3333 16.5 11.1333 16.5 12C16.5 12.25 16.4793 12.496 16.438 12.738C16.396 12.9793 16.3333 13.2166 16.25 13.45ZM12 9.19998L9.40001 6.59998L10.3 5.69998C10.6167 5.38331 10.979 5.31231 11.387 5.48698C11.7957 5.66231 12 5.97498 12 6.42498V9.19998Z" fill="black"/>
</svg>
