<svg width="294" height="180" viewBox="0 0 294 180" fill="none" xmlns="http://www.w3.org/2000/svg">
<path d="M108.54 58.2179C109.93 35.8179 107.38 -4.91212 149.49 0.487885C194.62 6.25788 181.71 59.0379 181.71 59.0379L108.54 58.2179Z" fill="#263238"/>
<path d="M137.6 44.7578C147.751 44.7578 155.98 36.5288 155.98 26.3778C155.98 16.2268 147.751 7.9978 137.6 7.9978C127.449 7.9978 119.22 16.2268 119.22 26.3778C119.22 36.5288 127.449 44.7578 137.6 44.7578Z" fill="white"/>
<path d="M140.02 8.02789C131.31 6.54789 122.02 12.9579 121.09 19.4579L155.6 22.6379C154.38 15.2279 146.92 9.20789 140.02 8.02789Z" fill="#263238"/>
<path d="M151.67 25.9178C151.42 30.7278 148.8 34.4978 145.82 34.3378C142.84 34.1778 140.62 30.1678 140.82 25.3378C141.02 20.5078 143.69 16.7578 146.67 16.9178C149.65 17.0778 151.91 21.1178 151.67 25.9178Z" fill="#263238"/>
<path d="M137.6 45.7578C133.767 45.7578 130.02 44.6212 126.833 42.4917C123.646 40.3622 121.162 37.3355 119.695 33.7942C118.228 30.253 117.844 26.3563 118.592 22.597C119.34 18.8376 121.186 15.3844 123.896 12.6741C126.606 9.96373 130.06 8.11798 133.819 7.37019C137.578 6.62241 141.475 7.0062 145.016 8.47302C148.557 9.93985 151.584 12.4238 153.714 15.6109C155.843 18.7979 156.98 22.5448 156.98 26.3778C156.974 31.5161 154.931 36.4424 151.298 40.0757C147.664 43.709 142.738 45.7525 137.6 45.7578ZM137.6 9.00781C134.162 9.00781 130.801 10.0274 127.943 11.9376C125.085 13.8477 122.857 16.5627 121.542 19.7391C120.227 22.9154 119.883 26.4105 120.554 29.7822C121.226 33.1538 122.882 36.2506 125.314 38.6808C127.745 41.1111 130.843 42.7656 134.215 43.4351C137.587 44.1046 141.082 43.7589 144.258 42.442C147.433 41.125 150.147 38.8958 152.056 36.0363C153.964 33.1769 154.982 29.8157 154.98 26.3778C154.974 21.7709 153.141 17.3543 149.883 14.0977C146.624 10.841 142.207 9.01046 137.6 9.00781Z" fill="#407BFF"/>
<path opacity="0.3" d="M176.58 57.6579H176.46C176.395 57.6438 176.335 57.617 176.281 57.5789C176.227 57.5408 176.182 57.4924 176.147 57.4364C176.113 57.3804 176.09 57.318 176.08 57.253C176.07 57.188 176.073 57.1216 176.09 57.0579C176.09 56.9279 179.31 43.3679 176 29.6579C175.968 29.5253 175.99 29.3854 176.061 29.2692C176.132 29.1529 176.247 29.0697 176.38 29.0379C176.512 29.0061 176.652 29.0282 176.768 29.0995C176.885 29.1707 176.968 29.2853 177 29.4179C180.37 43.4179 177.12 57.1579 177.09 57.2879C177.06 57.3987 176.993 57.496 176.9 57.5633C176.807 57.6307 176.694 57.6641 176.58 57.6579Z" fill="white"/>
<path opacity="0.3" d="M173.79 22.1379C173.694 22.1367 173.6 22.109 173.519 22.0578C173.438 22.0067 173.372 21.934 173.33 21.8479C172.087 19.1007 170.494 16.5259 168.59 14.1879C168.507 14.0855 168.468 13.9546 168.481 13.8235C168.494 13.6924 168.558 13.5718 168.66 13.4879C168.711 13.4453 168.77 13.4133 168.833 13.3937C168.897 13.3742 168.964 13.3675 169.03 13.374C169.096 13.3805 169.16 13.4001 169.218 13.4317C169.277 13.4633 169.328 13.5062 169.37 13.5579C171.321 15.9638 172.957 18.6084 174.24 21.4279C174.268 21.4868 174.285 21.5509 174.288 21.6163C174.291 21.6817 174.282 21.747 174.259 21.8086C174.237 21.8701 174.202 21.9265 174.158 21.9745C174.113 22.0225 174.06 22.061 174 22.0879C173.934 22.1185 173.863 22.1356 173.79 22.1379Z" fill="white"/>
<path d="M14.8198 163.298H14.4499C13.1238 163.261 11.8668 162.698 10.9553 161.734C10.0439 160.771 9.55272 159.484 9.58985 158.158C9.62698 156.832 10.1894 155.575 11.1533 154.663C12.1173 153.752 13.4038 153.261 14.7299 153.298H14.8198C17.7098 153.298 24.6599 149.788 39.1999 126.868C39.5858 126.259 40.0988 125.741 40.7037 125.349C41.3086 124.957 41.9911 124.701 42.7044 124.597C43.4177 124.494 44.1449 124.546 44.8363 124.749C45.5276 124.953 46.1668 125.304 46.7098 125.778C58.1285 135.594 70.5818 144.138 83.8498 151.258C84.4639 151.537 85.015 151.938 85.4702 152.436C85.9253 152.934 86.275 153.518 86.4982 154.155C86.7214 154.791 86.8135 155.467 86.7689 156.14C86.7243 156.813 86.544 157.47 86.2389 158.071C85.9337 158.673 85.51 159.207 84.9932 159.64C84.4764 160.074 83.8772 160.398 83.2317 160.594C82.5862 160.79 81.9078 160.853 81.2372 160.78C80.5667 160.707 79.9179 160.498 79.3299 160.168C66.9986 153.615 55.3423 145.865 44.5299 137.028C32.3399 155.378 23.2998 163.298 14.8198 163.298Z" fill="#263238"/>
<path d="M45.7604 124.878H45.3304C44.5446 124.764 43.8359 124.343 43.3598 123.708C42.8837 123.072 42.6789 122.274 42.7904 121.488C43.5004 116.488 42.6204 97.858 36.3104 83.358C36.0305 82.7172 35.9832 81.9987 36.1768 81.3268C36.3703 80.6549 36.7925 80.0717 37.3704 79.6779C51.0704 70.3479 80.2504 69.2279 81.4904 69.1879C81.8843 69.1748 82.277 69.2394 82.646 69.378C83.015 69.5167 83.3531 69.7266 83.641 69.9959C83.9288 70.2652 84.1608 70.5885 84.3237 70.9475C84.4866 71.3064 84.5772 71.694 84.5904 72.0879C84.6035 72.4819 84.5389 72.8746 84.4003 73.2436C84.2616 73.6126 84.0517 73.9507 83.7824 74.2385C83.5131 74.5264 83.1898 74.7584 82.8308 74.9213C82.4718 75.0842 82.0843 75.1748 81.6904 75.1879C81.4204 75.1879 55.9104 76.188 42.8104 83.388C48.3904 97.828 49.6604 115.818 48.7304 122.328C48.6226 123.038 48.2636 123.686 47.7186 124.154C47.1736 124.622 46.4787 124.879 45.7604 124.878Z" fill="#263238"/>
<path d="M50.7996 120.998C48.7996 116.288 39.7996 116.818 34.5296 120.858C31.7096 123.008 27.8896 129.498 27.5296 131.858C27.4096 132.419 27.4275 133 27.582 133.552C27.7364 134.105 28.0227 134.611 28.4162 135.028C28.8097 135.445 29.2987 135.761 29.841 135.947C30.3834 136.133 30.9629 136.185 31.5296 136.098C34.9796 135.798 39.7096 130.788 39.7096 130.788C36.5596 133.878 40.6296 136.058 46.7096 131.588C50.0296 129.098 53.0296 126.268 50.7996 120.998Z" fill="#407BFF"/>
<path d="M222.8 59.5378C222.754 59.5481 222.706 59.5481 222.66 59.5378C222.597 59.5206 222.537 59.4907 222.485 59.4499C222.433 59.4091 222.39 59.3582 222.358 59.3003C222.326 59.2423 222.307 59.1786 222.3 59.1129C222.294 59.0472 222.301 58.9808 222.32 58.9178C223.65 54.2778 225.1 51.4478 227.01 49.9178C226.711 48.8423 226.767 47.6988 227.17 46.6578C227.636 45.4426 228.459 44.3968 229.53 43.6578C229.239 43.3431 229.032 42.9598 228.929 42.5437C228.826 42.1275 228.83 41.692 228.94 41.2778C229.302 40.025 230.052 38.9189 231.08 38.1178C230.709 37.7027 230.506 37.1645 230.51 36.6078C230.51 33.6078 236.02 29.0878 242.27 28.2278C242.403 28.2092 242.538 28.2441 242.644 28.3247C242.751 28.4054 242.822 28.5252 242.84 28.6578C242.859 28.7904 242.824 28.9249 242.743 29.0318C242.663 29.1387 242.543 29.2092 242.41 29.2278C236.47 30.0378 231.49 34.3378 231.51 36.6078C231.508 36.9462 231.637 37.2723 231.87 37.5178C233.216 36.6056 234.729 35.9704 236.322 35.6493C237.916 35.3283 239.557 35.3277 241.15 35.6478C244.22 36.2378 245.47 36.8878 245.33 37.8178C245.05 39.5678 238.52 39.9378 234.14 39.4178C233.356 39.3465 232.592 39.1259 231.89 38.7678C230.947 39.439 230.246 40.3963 229.89 41.4978C229.805 41.7892 229.805 42.0993 229.892 42.3904C229.979 42.6815 230.149 42.9411 230.38 43.1378C232.24 42.1378 234.85 41.7778 238.3 42.5378C242.83 43.5378 243 44.0878 243.11 44.4178C243.146 44.5344 243.148 44.6583 243.118 44.7764C243.089 44.8944 243.027 45.0021 242.94 45.0878C241.99 46.0878 235.04 45.6178 231.55 44.7578C231.129 44.6617 230.722 44.5104 230.34 44.3078C229.307 44.9355 228.512 45.8888 228.08 47.0178C227.792 47.7482 227.712 48.5446 227.85 49.3178C228.028 49.2113 228.212 49.1145 228.4 49.0278C230.47 48.0278 232.97 48.2078 236.06 49.5278C238.06 50.3978 239.06 51.1778 239.16 51.9678C239.165 52.1704 239.114 52.3705 239.014 52.5466C238.913 52.7227 238.767 52.8683 238.59 52.9678C237.06 53.9678 231.72 53.8278 228.94 52.3478C228.301 52.0004 227.769 51.4853 227.4 50.8578C225.77 52.3578 224.45 55.0278 223.25 59.2178C223.214 59.3087 223.152 59.3872 223.072 59.4439C222.993 59.5007 222.898 59.5333 222.8 59.5378ZM228.22 50.2078C228.499 50.7251 228.923 51.1493 229.44 51.4278C231.7 52.6278 236.14 52.8978 237.8 52.2278C238.14 52.0878 238.19 51.9778 238.19 51.9778C238.19 51.9778 238.14 51.4178 235.69 50.3678C232.89 49.1678 230.69 48.9978 228.86 49.8478C228.64 49.9541 228.426 50.0743 228.22 50.2078ZM231.56 43.6378L231.81 43.7078C235.067 44.4583 238.418 44.7111 241.75 44.4578C240.568 44.0193 239.35 43.6847 238.11 43.4578C235.957 42.8743 233.679 42.9369 231.56 43.6378ZM232.82 38.0178C233.282 38.1833 233.762 38.2907 234.25 38.3378C239.25 38.9278 243.64 38.2378 244.25 37.6078C244.08 37.4578 243.41 37.0278 240.93 36.5578C238.14 36.0012 235.242 36.5229 232.82 38.0178Z" fill="#263238"/>
<path d="M189.56 165.618L71.7601 161.708L66.8701 47.4878L205.98 50.5978L189.56 165.618Z" fill="#407BFF"/>
<path d="M108.54 163.428C108.414 163.428 108.292 163.381 108.2 163.296C108.107 163.211 108.05 163.093 108.04 162.968L98.5997 48.2478C98.5913 48.1157 98.6346 47.9855 98.7204 47.8847C98.8062 47.784 98.9279 47.7205 99.0597 47.7078C99.1912 47.7019 99.3201 47.7461 99.4203 47.8314C99.5205 47.9168 99.5846 48.037 99.5997 48.1678L109.09 162.888C109.095 162.954 109.088 163.02 109.067 163.082C109.047 163.145 109.015 163.203 108.972 163.254C108.929 163.304 108.877 163.345 108.818 163.375C108.759 163.405 108.695 163.423 108.63 163.428H108.54Z" fill="#263238"/>
<path d="M189.56 165.618L221.22 160.798L231.19 54.5879L205.98 50.5979L189.56 165.618Z" fill="#407BFF"/>
<path opacity="0.2" d="M189.56 165.618L221.22 160.798L231.19 54.5879L205.98 50.5979L189.56 165.618Z" fill="black"/>
<path d="M81.8203 139.698L78.9203 71.8279C78.8488 70.1513 79.122 68.4777 79.7229 66.9109C80.3239 65.344 81.2399 63.917 82.4144 62.7183C83.5888 61.5195 84.9966 60.5743 86.5508 59.9413C88.105 59.3083 89.7726 59.0008 91.4503 59.0379L179.51 61.0379C181.244 61.0771 182.95 61.4834 184.516 62.2301C186.081 62.9768 187.471 64.0469 188.592 65.3698C189.714 66.6927 190.542 68.2384 191.023 69.9049C191.504 71.5714 191.625 73.3209 191.38 75.0379L181.62 143.378C181.198 146.371 179.686 149.103 177.374 151.05C175.061 152.997 172.112 154.022 169.09 153.928L93.7003 151.428C90.6055 151.332 87.6611 150.07 85.4578 147.895C83.2545 145.719 81.9551 142.791 81.8203 139.698Z" fill="#263238"/>
<path d="M170.09 126.538C169.902 126.541 169.716 126.505 169.543 126.431C169.371 126.357 169.216 126.247 169.09 126.108L160.53 116.738L151.29 125.178C151.034 125.412 150.695 125.536 150.348 125.521C150.001 125.506 149.674 125.354 149.44 125.098L140.88 115.728L131.64 124.168C131.384 124.402 131.045 124.526 130.698 124.511C130.351 124.496 130.024 124.344 129.79 124.088L121.22 114.718L111.99 123.158C111.855 123.28 111.697 123.373 111.525 123.431C111.353 123.49 111.171 123.513 110.99 123.498C110.642 123.477 110.316 123.323 110.08 123.068L101.52 113.708L92.2897 122.138C92.032 122.373 91.6917 122.497 91.3432 122.482C90.9946 122.467 90.6662 122.314 90.4297 122.058C90.3129 121.931 90.2225 121.782 90.1638 121.62C90.105 121.458 90.0791 121.286 90.0875 121.114C90.0958 120.942 90.1384 120.773 90.2126 120.618C90.2868 120.462 90.3912 120.323 90.5197 120.208L100.72 110.878C100.977 110.643 101.318 110.519 101.666 110.534C102.015 110.549 102.343 110.702 102.58 110.958L111.14 120.328L120.37 111.888C120.632 111.658 120.971 111.536 121.32 111.548C121.668 111.567 121.994 111.721 122.23 111.978L130.79 121.348L140.03 112.908C140.156 112.791 140.304 112.699 140.466 112.64C140.627 112.58 140.799 112.553 140.971 112.561C141.144 112.568 141.312 112.61 141.468 112.683C141.624 112.757 141.764 112.86 141.88 112.988L150.44 122.358L159.68 113.918C159.936 113.683 160.274 113.56 160.621 113.575C160.968 113.59 161.295 113.742 161.53 113.998L171.09 124.378C171.261 124.569 171.372 124.805 171.411 125.059C171.449 125.312 171.414 125.571 171.308 125.804C171.202 126.038 171.03 126.235 170.814 126.372C170.597 126.51 170.346 126.581 170.09 126.578V126.538Z" fill="white"/>
<path d="M11.84 168.048L5.57999 165.058L0 137.888L3.03 134.558L11.84 168.048Z" fill="#407BFF"/>
<path d="M11.8403 168.048L20.1503 163.188L13.0303 140.808L3.03027 134.558L11.8403 168.048Z" fill="#407BFF"/>
<path opacity="0.2" d="M11.8403 168.048L20.1503 163.188L13.0303 140.808L3.03027 134.558L11.8403 168.048Z" fill="black"/>
<path d="M148.09 172.988H147.4C146.074 172.952 144.816 172.391 143.904 171.428C142.992 170.465 142.499 169.179 142.535 167.853C142.571 166.527 143.132 165.269 144.095 164.357C145.058 163.444 146.344 162.952 147.67 162.988C155.37 163.238 171.67 158.508 180.99 149.468C181.553 148.916 182.238 148.505 182.99 148.268C198.78 143.528 204.65 153.098 204.89 153.508L196.29 158.598C196.32 158.662 196.357 158.722 196.4 158.778C196.31 158.648 194.07 155.778 186.95 157.538C175.26 168.198 157.32 172.988 148.09 172.988Z" fill="#263238"/>
<path d="M147.48 179.628L129.27 178.488L127.84 144.908L152.31 145.818L147.48 179.628Z" fill="#407BFF"/>
<path d="M147.48 179.628L151.74 175.388L154.38 154.458L152.31 145.818L147.48 179.628Z" fill="#407BFF"/>
<path opacity="0.2" d="M147.48 179.628L151.74 175.388L154.38 154.458L152.31 145.818L147.48 179.628Z" fill="black"/>
<path d="M253 166.918C252.347 166.917 251.711 166.703 251.19 166.308C240.79 158.408 226.74 144.378 221.35 130.848C221.269 130.652 221.212 130.447 221.18 130.238C218.55 114.598 216.04 81.6879 215.93 80.2979C215.901 79.9039 215.949 79.508 216.073 79.1327C216.196 78.7574 216.392 78.4101 216.65 78.1107C217.17 77.5059 217.91 77.1326 218.705 77.0729C219.501 77.0132 220.288 77.272 220.893 77.7925C221.497 78.3129 221.871 79.0522 221.93 79.8479C221.93 80.1779 224.5 113.408 227.06 128.918C232.44 142.078 247.06 155.588 254.84 161.528C255.341 161.908 255.71 162.436 255.895 163.037C256.079 163.638 256.071 164.282 255.869 164.878C255.668 165.473 255.285 165.991 254.774 166.357C254.262 166.723 253.649 166.919 253.02 166.918H253Z" fill="#263238"/>
<path d="M266.87 168.428C264.55 168.428 261.92 167.378 259.05 165.308C258.406 164.841 257.973 164.137 257.847 163.352C257.722 162.566 257.913 161.762 258.38 161.118C258.847 160.473 259.55 160.041 260.336 159.915C261.122 159.789 261.926 159.981 262.57 160.448C265.05 162.238 266.4 162.448 266.87 162.448C267.666 162.448 268.429 162.764 268.991 163.327C269.554 163.889 269.87 164.652 269.87 165.448C269.87 166.244 269.554 167.007 268.991 167.569C268.429 168.132 267.666 168.448 266.87 168.448V168.428Z" fill="#263238"/>
<path d="M259.89 165.218C263.1 155.688 276.26 157.568 280.8 158.988C284.678 160.114 288.398 161.726 291.87 163.788C294.32 165.388 294.36 168.078 291.09 169.608C287.09 171.488 276.93 169.818 276.93 169.818C282.17 172.108 276.93 175.818 267.72 172.178C264.73 170.998 258.76 168.718 259.89 165.218Z" fill="#407BFF"/>
<path d="M227.95 84.3779C226.76 92.4779 220.05 98.4479 214.59 97.6479C209.13 96.8479 208.91 89.6479 210.1 81.5079C211.29 73.3679 213.45 67.5079 218.91 68.3079C224.37 69.1079 229.14 76.3079 227.95 84.3779Z" fill="#263238"/>
<path d="M95.9704 52.078C96.4233 52.078 96.7904 51.7109 96.7904 51.258C96.7904 50.8051 96.4233 50.438 95.9704 50.438C95.5175 50.438 95.1504 50.8051 95.1504 51.258C95.1504 51.7109 95.5175 52.078 95.9704 52.078Z" fill="#263238"/>
<path d="M104.3 57.1579C104.3 57.3201 104.252 57.4786 104.162 57.6135C104.072 57.7483 103.944 57.8534 103.794 57.9155C103.644 57.9775 103.479 57.9938 103.32 57.9622C103.161 57.9305 103.015 57.8524 102.9 57.7377C102.786 57.6231 102.708 57.4769 102.676 57.3179C102.644 57.1588 102.661 56.9939 102.723 56.8441C102.785 56.6943 102.89 56.5662 103.025 56.4761C103.159 56.386 103.318 56.3379 103.48 56.3379C103.698 56.3379 103.906 56.4243 104.06 56.5781C104.214 56.7318 104.3 56.9404 104.3 57.1579Z" fill="#263238"/>
<path d="M105.22 154.058C105.22 154.22 105.172 154.379 105.082 154.513C104.992 154.648 104.864 154.753 104.714 154.815C104.564 154.877 104.399 154.894 104.24 154.862C104.081 154.83 103.935 154.752 103.82 154.638C103.706 154.523 103.627 154.377 103.596 154.218C103.564 154.059 103.58 153.894 103.642 153.744C103.705 153.594 103.81 153.466 103.945 153.376C104.079 153.286 104.238 153.238 104.4 153.238C104.618 153.238 104.826 153.324 104.98 153.478C105.134 153.632 105.22 153.84 105.22 154.058Z" fill="#263238"/>
<path d="M112.73 159.968C112.73 160.13 112.682 160.289 112.592 160.424C112.502 160.558 112.373 160.663 112.224 160.726C112.074 160.788 111.909 160.804 111.75 160.772C111.591 160.741 111.445 160.662 111.33 160.548C111.215 160.433 111.137 160.287 111.106 160.128C111.074 159.969 111.09 159.804 111.152 159.654C111.214 159.504 111.319 159.376 111.454 159.286C111.589 159.196 111.748 159.148 111.91 159.148C112.127 159.148 112.336 159.234 112.49 159.388C112.643 159.542 112.73 159.75 112.73 159.968Z" fill="#263238"/>
<path d="M181.652 68.8057L85.666 67L84.9997 134.86L180.986 136.666L181.652 68.8057Z" fill="#263238"/>
<path d="M97.3018 129.261L168.789 130.606" stroke="white" stroke-linecap="round" stroke-linejoin="round"/>
<path d="M116.943 129.631L97.3018 129.261" stroke="white" stroke-width="2" stroke-linecap="round" stroke-linejoin="round"/>
<path d="M96.23 120.351L91.8477 120.268L91.8244 122.638L96.2068 122.72L96.23 120.351Z" fill="white"/>
<path d="M96.2622 116.991L91.8799 116.909L91.8566 119.279L96.239 119.361L96.2622 116.991Z" fill="white"/>
<path d="M96.2954 113.632L91.9131 113.55L91.8898 115.92L96.2722 116.002L96.2954 113.632Z" fill="white"/>
<path d="M96.3277 110.262L91.9453 110.18L91.922 112.55L96.3044 112.632L96.3277 110.262Z" fill="white"/>
<path d="M96.3619 106.903L91.9795 106.821L91.9562 109.191L96.3386 109.273L96.3619 106.903Z" fill="white"/>
<path d="M96.3941 103.543L92.0117 103.461L91.9885 105.83L96.3708 105.913L96.3941 103.543Z" fill="white"/>
<path d="M96.4273 100.184L92.0449 100.102L92.0217 102.471L96.404 102.554L96.4273 100.184Z" fill="white"/>
<path d="M96.4595 96.8136L92.0771 96.7312L92.0539 99.1009L96.4362 99.1833L96.4595 96.8136Z" fill="#507DBC"/>
<path d="M103.341 120.485L98.959 120.402L98.9357 122.772L103.318 122.854L103.341 120.485Z" fill="white"/>
<path d="M103.375 117.125L98.9922 117.043L98.9689 119.412L103.351 119.495L103.375 117.125Z" fill="white"/>
<path d="M103.408 113.766L99.0254 113.684L99.0021 116.054L103.384 116.136L103.408 113.766Z" fill="white"/>
<path d="M103.44 110.396L99.0576 110.314L99.0344 112.683L103.417 112.766L103.44 110.396Z" fill="white"/>
<path d="M103.473 107.037L99.0908 106.954L99.0676 109.324L103.45 109.406L103.473 107.037Z" fill="white"/>
<path d="M103.506 103.677L99.124 103.594L99.1008 105.964L103.483 106.047L103.506 103.677Z" fill="white"/>
<path d="M103.54 100.318L99.1572 100.236L99.134 102.605L103.516 102.688L103.54 100.318Z" fill="white"/>
<path d="M103.572 96.9484L99.1895 96.866L99.1662 99.2356L103.549 99.3181L103.572 96.9484Z" fill="white"/>
<path d="M103.606 93.5885L99.2236 93.5061L99.2004 95.8758L103.583 95.9582L103.606 93.5885Z" fill="white"/>
<path d="M103.638 90.2292L99.2559 90.1467L99.2326 92.5164L103.615 92.5988L103.638 90.2292Z" fill="#507DBC"/>
<path d="M110.445 120.618L106.062 120.536L106.039 122.906L110.422 122.988L110.445 120.618Z" fill="white"/>
<path d="M110.478 117.259L106.096 117.177L106.072 119.546L110.455 119.629L110.478 117.259Z" fill="white"/>
<path d="M110.51 113.9L106.128 113.817L106.105 116.187L110.487 116.269L110.51 113.9Z" fill="white"/>
<path d="M110.543 110.53L106.161 110.448L106.138 112.818L110.52 112.9L110.543 110.53Z" fill="white"/>
<path d="M110.576 107.171L106.193 107.088L106.17 109.458L110.552 109.54L110.576 107.171Z" fill="white"/>
<path d="M110.61 103.811L106.228 103.728L106.204 106.098L110.587 106.18L110.61 103.811Z" fill="white"/>
<path d="M110.642 100.451L106.26 100.368L106.236 102.738L110.619 102.821L110.642 100.451Z" fill="white"/>
<path d="M110.676 97.0817L106.294 96.9993L106.271 99.3689L110.653 99.4514L110.676 97.0817Z" fill="#507DBC"/>
<path d="M117.556 120.752L113.174 120.67L113.151 123.039L117.533 123.122L117.556 120.752Z" fill="white"/>
<path d="M117.589 117.393L113.207 117.311L113.184 119.68L117.566 119.763L117.589 117.393Z" fill="white"/>
<path d="M117.622 114.033L113.239 113.951L113.216 116.321L117.598 116.403L117.622 114.033Z" fill="white"/>
<path d="M117.656 110.664L113.273 110.581L113.25 112.951L117.633 113.033L117.656 110.664Z" fill="white"/>
<path d="M117.689 107.304L113.307 107.221L113.283 109.591L117.666 109.674L117.689 107.304Z" fill="white"/>
<path d="M117.722 103.945L113.34 103.862L113.317 106.232L117.699 106.314L117.722 103.945Z" fill="#507DBC"/>
<path d="M124.66 120.886L120.277 120.803L120.254 123.173L124.636 123.256L124.66 120.886Z" fill="white"/>
<path d="M124.693 117.527L120.311 117.444L120.287 119.814L124.67 119.896L124.693 117.527Z" fill="white"/>
<path d="M124.727 114.167L120.345 114.085L120.321 116.454L124.704 116.537L124.727 114.167Z" fill="white"/>
<path d="M124.759 110.797L120.377 110.715L120.354 113.084L124.736 113.167L124.759 110.797Z" fill="white"/>
<path d="M124.793 107.438L120.41 107.356L120.387 109.725L124.769 109.808L124.793 107.438Z" fill="white"/>
<path d="M124.826 104.078L120.443 103.995L120.42 106.365L124.802 106.447L124.826 104.078Z" fill="white"/>
<path d="M124.859 100.719L120.477 100.636L120.453 103.006L124.836 103.089L124.859 100.719Z" fill="white"/>
<path d="M124.891 97.3493L120.509 97.2668L120.486 99.6365L124.868 99.7189L124.891 97.3493Z" fill="#507DBC"/>
<path d="M131.772 121.02L127.39 120.937L127.366 123.307L131.749 123.389L131.772 121.02Z" fill="white"/>
<path d="M131.804 117.66L127.422 117.578L127.399 119.948L131.781 120.03L131.804 117.66Z" fill="white"/>
<path d="M131.839 114.3L127.457 114.218L127.434 116.588L131.816 116.67L131.839 114.3Z" fill="white"/>
<path d="M131.872 110.931L127.489 110.849L127.466 113.219L131.848 113.301L131.872 110.931Z" fill="white"/>
<path d="M131.905 107.571L127.522 107.489L127.499 109.859L131.882 109.941L131.905 107.571Z" fill="white"/>
<path d="M131.937 104.212L127.555 104.13L127.531 106.499L131.914 106.582L131.937 104.212Z" fill="white"/>
<path d="M131.97 100.852L127.588 100.77L127.565 103.139L131.947 103.222L131.97 100.852Z" fill="#507DBC"/>
<path d="M138.877 121.153L134.494 121.071L134.471 123.44L138.853 123.523L138.877 121.153Z" fill="white"/>
<path d="M138.91 117.794L134.527 117.712L134.504 120.081L138.886 120.164L138.91 117.794Z" fill="white"/>
<path d="M138.942 114.434L134.56 114.352L134.536 116.721L138.919 116.804L138.942 114.434Z" fill="white"/>
<path d="M138.975 111.065L134.593 110.983L134.57 113.352L138.952 113.435L138.975 111.065Z" fill="white"/>
<path d="M139.008 107.705L134.626 107.622L134.603 109.992L138.985 110.074L139.008 107.705Z" fill="white"/>
<path d="M139.041 104.346L134.658 104.263L134.635 106.633L139.017 106.716L139.041 104.346Z" fill="white"/>
<path d="M139.073 100.986L134.69 100.904L134.667 103.274L139.05 103.356L139.073 100.986Z" fill="white"/>
<path d="M139.107 97.6164L134.725 97.5339L134.701 99.9036L139.084 99.986L139.107 97.6164Z" fill="white"/>
<path d="M139.139 94.2575L134.757 94.175L134.734 96.5447L139.116 96.6272L139.139 94.2575Z" fill="white"/>
<path d="M139.173 90.8976L134.791 90.8152L134.768 93.1848L139.15 93.2673L139.173 90.8976Z" fill="white"/>
<path d="M139.206 87.538L134.823 87.4556L134.8 89.8252L139.182 89.9077L139.206 87.538Z" fill="#507DBC"/>
<path d="M145.988 121.287L141.605 121.204L141.582 123.574L145.965 123.656L145.988 121.287Z" fill="white"/>
<path d="M146.021 117.928L141.639 117.845L141.615 120.215L145.998 120.298L146.021 117.928Z" fill="white"/>
<path d="M146.053 114.568L141.671 114.486L141.648 116.855L146.03 116.938L146.053 114.568Z" fill="white"/>
<path d="M146.086 111.199L141.704 111.116L141.681 113.486L146.063 113.569L146.086 111.199Z" fill="white"/>
<path d="M146.12 107.839L141.737 107.757L141.714 110.126L146.096 110.209L146.12 107.839Z" fill="white"/>
<path d="M146.153 104.479L141.771 104.397L141.747 106.766L146.13 106.849L146.153 104.479Z" fill="white"/>
<path d="M146.185 101.12L141.803 101.038L141.779 103.408L146.162 103.49L146.185 101.12Z" fill="white"/>
<path d="M146.218 97.7502L141.836 97.6677L141.813 100.037L146.195 100.12L146.218 97.7502Z" fill="white"/>
<path d="M146.252 94.3908L141.87 94.3083L141.847 96.678L146.229 96.7605L146.252 94.3908Z" fill="white"/>
<path d="M146.286 91.0309L141.903 90.9485L141.88 93.3181L146.262 93.4006L146.286 91.0309Z" fill="white"/>
<path d="M146.318 87.672L141.936 87.5896L141.912 89.9593L146.295 90.0417L146.318 87.672Z" fill="white"/>
<path d="M146.352 84.3024L141.97 84.22L141.946 86.5896L146.329 86.6721L146.352 84.3024Z" fill="white"/>
<path d="M146.383 80.9428L142.001 80.8604L141.978 83.23L146.36 83.3125L146.383 80.9428Z" fill="white"/>
<path d="M146.417 77.5834L142.034 77.501L142.011 79.8706L146.393 79.9531L146.417 77.5834Z" fill="#507DBC"/>
<path d="M153.091 121.421L148.709 121.338L148.686 123.708L153.068 123.79L153.091 121.421Z" fill="white"/>
<path d="M153.125 118.061L148.742 117.979L148.719 120.348L153.101 120.431L153.125 118.061Z" fill="white"/>
<path d="M153.157 114.702L148.774 114.619L148.751 116.989L153.134 117.072L153.157 114.702Z" fill="white"/>
<path d="M153.191 111.332L148.809 111.249L148.785 113.619L153.168 113.701L153.191 111.332Z" fill="white"/>
<path d="M153.223 107.973L148.841 107.89L148.818 110.26L153.2 110.342L153.223 107.973Z" fill="white"/>
<path d="M153.256 104.613L148.874 104.531L148.851 106.901L153.233 106.983L153.256 104.613Z" fill="white"/>
<path d="M153.291 101.253L148.908 101.171L148.885 103.54L153.267 103.623L153.291 101.253Z" fill="white"/>
<path d="M153.324 97.8844L148.941 97.802L148.918 100.172L153.301 100.254L153.324 97.8844Z" fill="white"/>
<path d="M153.356 94.5246L148.974 94.4421L148.95 96.8118L153.333 96.8942L153.356 94.5246Z" fill="white"/>
<path d="M153.388 91.1652L149.006 91.0828L148.983 93.4524L153.365 93.5349L153.388 91.1652Z" fill="white"/>
<path d="M153.421 87.8056L149.039 87.7231L149.016 90.0928L153.398 90.1752L153.421 87.8056Z" fill="white"/>
<path d="M153.455 84.436L149.072 84.3535L149.049 86.7232L153.431 86.8056L153.455 84.436Z" fill="#507DBC"/>
<path d="M160.204 121.554L155.821 121.472L155.798 123.842L160.18 123.924L160.204 121.554Z" fill="white"/>
<path d="M160.236 118.195L155.854 118.113L155.83 120.482L160.213 120.565L160.236 118.195Z" fill="white"/>
<path d="M160.269 114.836L155.887 114.753L155.863 117.123L160.246 117.205L160.269 114.836Z" fill="white"/>
<path d="M160.302 111.466L155.92 111.384L155.897 113.754L160.279 113.836L160.302 111.466Z" fill="white"/>
<path d="M160.335 108.106L155.953 108.024L155.93 110.393L160.312 110.476L160.335 108.106Z" fill="white"/>
<path d="M160.369 104.747L155.986 104.665L155.963 107.034L160.345 107.117L160.369 104.747Z" fill="white"/>
<path d="M160.402 101.387L156.02 101.305L155.996 103.675L160.379 103.757L160.402 101.387Z" fill="white"/>
<path d="M160.434 98.0177L156.052 97.9353L156.028 100.305L160.411 100.387L160.434 98.0177Z" fill="white"/>
<path d="M160.467 94.6579L156.085 94.5754L156.062 96.9451L160.444 97.0275L160.467 94.6579Z" fill="white"/>
<path d="M160.5 91.299L156.117 91.2166L156.094 93.5862L160.476 93.6687L160.5 91.299Z" fill="#507DBC"/>
<path d="M167.307 121.688L162.925 121.606L162.902 123.975L167.284 124.058L167.307 121.688Z" fill="white"/>
<path d="M167.34 118.329L162.958 118.246L162.935 120.616L167.317 120.698L167.34 118.329Z" fill="white"/>
<path d="M167.374 114.968L162.991 114.886L162.968 117.256L167.35 117.338L167.374 114.968Z" fill="white"/>
<path d="M167.405 111.6L163.022 111.517L162.999 113.887L167.382 113.969L167.405 111.6Z" fill="white"/>
<path d="M167.439 108.24L163.057 108.158L163.033 110.528L167.416 110.61L167.439 108.24Z" fill="#507DBC"/>
<path d="M174.418 121.821L170.036 121.739L170.013 124.109L174.395 124.191L174.418 121.821Z" fill="white"/>
<path d="M174.452 118.463L170.069 118.38L170.046 120.75L174.428 120.832L174.452 118.463Z" fill="white"/>
<path d="M174.484 115.103L170.102 115.021L170.078 117.39L174.461 117.473L174.484 115.103Z" fill="white"/>
<path d="M174.517 111.733L170.135 111.651L170.111 114.02L174.494 114.103L174.517 111.733Z" fill="white"/>
<path d="M174.55 108.374L170.168 108.292L170.145 110.661L174.527 110.744L174.55 108.374Z" fill="white"/>
<path d="M174.585 105.014L170.202 104.932L170.179 107.302L174.561 107.384L174.585 105.014Z" fill="white"/>
<path d="M174.617 101.654L170.234 101.572L170.211 103.942L174.593 104.024L174.617 101.654Z" fill="white"/>
<path d="M174.65 98.2848L170.268 98.2024L170.244 100.572L174.627 100.654L174.65 98.2848Z" fill="#507DBC"/>
</svg>
