<svg width="24" height="24" viewBox="0 0 24 24" fill="none" xmlns="http://www.w3.org/2000/svg">
<path d="M19.5 19.5C19.9167 19.5 20.2707 19.354 20.562 19.062C20.854 18.7707 21 18.4167 21 18C21 17.5833 20.854 17.2293 20.562 16.938C20.2707 16.646 19.9167 16.5 19.5 16.5C19.0833 16.5 18.7293 16.646 18.438 16.938C18.146 17.2293 18 17.5833 18 18C18 18.4167 18.146 18.7707 18.438 19.062C18.7293 19.354 19.0833 19.5 19.5 19.5ZM16 19V17H3V19H16ZM19.5 13.5C19.9167 13.5 20.2707 13.354 20.562 13.062C20.854 12.7707 21 12.4167 21 12C21 11.5833 20.854 11.2293 20.562 10.938C20.2707 10.646 19.9167 10.5 19.5 10.5C19.0833 10.5 18.7293 10.646 18.438 10.938C18.146 11.2293 18 11.5833 18 12C18 12.4167 18.146 12.7707 18.438 13.062C18.7293 13.354 19.0833 13.5 19.5 13.5ZM16 13V11H3V13H16ZM19.5 7.5C19.9167 7.5 20.2707 7.354 20.562 7.062C20.854 6.77067 21 6.41667 21 6C21 5.58333 20.854 5.22933 20.562 4.938C20.2707 4.646 19.9167 4.5 19.5 4.5C19.0833 4.5 18.7293 4.646 18.438 4.938C18.146 5.22933 18 5.58333 18 6C18 6.41667 18.146 6.77067 18.438 7.062C18.7293 7.354 19.0833 7.5 19.5 7.5ZM16 7V5H3V7H16Z" fill="black"/>
</svg>
